<?xml version="1.0" ?><!DOCTYPE svg  PUBLIC '-//W3C//DTD SVG 1.1//EN'  'http://www.w3.org/Graphics/SVG/1.1/DTD/svg11.dtd'><svg height="512px" style="enable-background:new 0 0 512 512;" version="1.1" viewBox="0 0 512 512" width="512px" xml:space="preserve" xmlns="http://www.w3.org/2000/svg" xmlns:xlink="http://www.w3.org/1999/xlink"><g id="C_-_159_x2C__revenue_x2C__Capital_x2C__earnings_x2C__make_x2C__making_x2C__money_x2C__profit"><g><path d="M371.24,279.57c0.448-2.178,2.365-3.741,4.589-3.741h37.133v-39.664h-37.133c-2.224,0-4.141-1.563-4.589-3.741    c-3.003-14.597-8.725-28.331-17.009-40.818c-1.235-1.862-0.983-4.335,0.599-5.911l26.246-26.123l-28.195-28.065l-26.278,26.155    c-1.571,1.564-4.024,1.813-5.879,0.595c-12.555-8.251-26.357-13.946-41.024-16.928c-2.183-0.444-3.752-2.363-3.752-4.591V99.796    h-39.895v36.942c0,2.228-1.568,4.147-3.752,4.591c-14.664,2.981-28.47,8.677-41.034,16.929c-1.853,1.215-4.307,0.969-5.878-0.597    l-26.271-26.154l-28.195,28.065l26.246,26.123c1.583,1.576,1.834,4.051,0.598,5.913c-8.277,12.468-14,26.201-17.007,40.817    c-0.449,2.178-2.366,3.741-4.589,3.741H99.037v39.669h37.133c2.224,0,4.141,1.563,4.589,3.74    c3.002,14.591,8.725,28.325,17.009,40.821c1.234,1.862,0.983,4.336-0.6,5.91l-26.246,26.116l28.195,28.064l26.279-26.155    c1.573-1.564,4.027-1.813,5.88-0.594c12.537,8.244,26.341,13.941,41.027,16.935c2.182,0.444,3.749,2.363,3.749,4.591V412.2h39.895    v-36.937c0-2.228,1.567-4.146,3.75-4.591c14.686-2.993,28.488-8.69,41.025-16.935c1.855-1.22,4.308-0.971,5.88,0.594    l26.278,26.155l28.195-28.064l-26.244-26.116c-1.584-1.574-1.836-4.048-0.601-5.91C362.516,307.9,368.238,294.164,371.24,279.57z     M256.004,332.195c-42.201,0-76.534-34.18-76.534-76.193c0-42.015,34.333-76.196,76.534-76.196    c42.2,0,76.532,34.181,76.532,76.196C332.536,298.016,298.204,332.195,256.004,332.195z"/><path d="M260.324,261.544v22.861c2.945-0.64,5.348-2.036,7.191-4.189c1.863-2.153,2.783-4.685,2.783-7.609    c0-2.596-0.781-4.844-2.346-6.722C266.412,263.994,263.867,262.562,260.324,261.544z"/><path d="M246.35,226.251c-1.345,1.869-2.002,3.92-2.002,6.175c0,2.052,0.599,3.964,1.819,5.74    c1.221,1.751,3.106,3.187,5.628,4.261v-20.206C249.493,223.037,247.686,224.375,246.35,226.251z"/><path d="M256.004,189.177c-37.034,0-67.163,29.978-67.163,66.825c0,36.846,30.129,66.823,67.163,66.823    c37.033,0,67.161-29.978,67.161-66.823C323.165,219.155,293.037,189.177,256.004,189.177z M278.264,288.312    c-4.305,4.823-10.268,7.812-17.939,9.005v10.883h-8.529v-10.76c-6.731-0.82-12.199-3.293-16.423-7.455    c-4.225-4.168-6.906-10.066-8.09-17.66l15.259-1.79c0.623,3.105,1.807,5.774,3.523,8.031c1.724,2.247,3.626,3.861,5.73,4.88    v-24.411c-7.63-2.176-13.214-5.463-16.758-9.87c-3.567-4.424-5.35-9.761-5.35-16.061c0-6.378,2.024-11.741,6.051-16.061    c4.019-4.351,9.369-6.838,16.057-7.5v-5.738h8.529v5.738c6.246,0.743,11.21,2.852,14.922,6.344    c3.685,3.485,6.043,8.146,7.066,13.987l-14.9,1.913c-0.922-4.583-3.281-7.689-7.088-9.323v22.781    c9.434,2.509,15.857,5.796,19.264,9.805c3.42,4.023,5.13,9.188,5.13,15.486C284.718,277.568,282.568,283.488,278.264,288.312z"/><path d="M238.379,465.845c-98.516-8.08-176.915-81.819-191.529-177.75l17.625,19.186c0.924,1.006,2.186,1.516,3.452,1.516    c1.133,0,2.269-0.408,3.169-1.235c1.905-1.751,2.03-4.714,0.28-6.62l-26.706-29.069c-0.821-1.681-2.608-2.774-4.589-2.625    c-2.437,0.203-4.26,2.24-4.275,4.641c-0.008,0.124-0.007,0.247-0.006,0.37c0.001,0.016-0.002,0.031-0.001,0.047    c0.003,0.027,0.006,0.054,0.008,0.08c0.007,0.229,0.023,0.453,0.063,0.679c4.44,51.41,27.108,99.848,63.898,136.465    c36.965,36.791,85.92,59.398,137.845,63.657c0.131,0.011,0.26,0.016,0.388,0.016c2.414,0,4.464-1.854,4.666-4.303    C242.878,468.318,240.958,466.056,238.379,465.845z"/><path d="M471.918,269.246c-2.572-0.201-4.843,1.705-5.057,4.283c-8.524,102.951-89.797,183.831-193.248,192.315    c-2.58,0.211-4.498,2.474-4.287,5.052c0.2,2.449,2.25,4.304,4.664,4.304c0.129,0,0.258-0.005,0.389-0.016    c51.929-4.259,100.886-26.866,137.852-63.657c36.972-36.797,59.689-85.53,63.971-137.224    C476.414,271.724,474.497,269.461,471.918,269.246z"/><path d="M40.082,242.755c0.132,0.01,0.263,0.016,0.392,0.016c2.413,0,4.462-1.852,4.664-4.298    c8.525-102.949,89.795-183.829,193.241-192.315c2.58-0.211,4.499-2.474,4.288-5.053c-0.211-2.579-2.478-4.503-5.053-4.287    c-51.925,4.26-100.88,26.868-137.845,63.66c-36.972,36.796-59.688,85.529-63.97,137.221    C35.586,240.278,37.503,242.541,40.082,242.755z"/><path d="M273.613,46.157c98.447,8.075,176.806,81.713,191.502,177.54l-17.555-19.534c-1.729-1.924-4.691-2.083-6.617-0.353    c-1.925,1.729-2.082,4.692-0.354,6.616l26.769,29.786c0.782,1.532,2.372,2.559,4.167,2.559c0.131,0,0.262-0.006,0.393-0.016    c2.403-0.2,4.208-2.183,4.273-4.538c0.011-0.13,0.008-0.258,0.007-0.388c-0.002-0.044,0.007-0.086,0.003-0.131    c-0.005-0.051-0.01-0.102-0.015-0.153c-0.011-0.158-0.019-0.316-0.044-0.472c-4.412-51.46-27.09-99.949-63.912-136.596    c-36.966-36.792-85.923-59.4-137.852-63.66c-2.592-0.215-4.842,1.708-5.053,4.287C269.115,43.684,271.033,45.946,273.613,46.157z"/></g></g><g id="Layer_1"/></svg>