<svg xmlns="http://www.w3.org/2000/svg" viewBox="0 0 461.32 416.89"><defs><style>.cls-1{fill:#ba9066;}.cls-2{fill:#fff;}.cls-3{fill:#ffa66b;}.cls-4{fill:#ffe7b8;}.cls-5{fill:#d5f0fd;}.cls-6{fill:#afd1df;}.cls-7{fill:#99bb4e;}.cls-8{fill:#ff8f46;}</style></defs><g id="Layer_2" data-name="Layer 2"><g id="objects"><path class="cls-1" d="M19.84,296.76c.72,16.58,1.8,95.85,2.16,98.73s16.21.72,16.21.72L35.69,313.7Z"/><path class="cls-2" d="M73.16,205.6c-26.52,9.61-58.73,24.51-66.3,31s-8.65,30.62-1.8,42.88,52.61,73.14,62.7,85.39S96.22,402.7,100.19,407s23.42,18.74,57.65,0S431.67,272.26,452.21,256.41c10.81-9.37,13.33-19.1-3.24-40s-68.1-89-80.35-99.8-25.94-13-49-2.89S122.89,187.59,73.16,205.6Z"/><path d="M125.69,416.89h0c-16.65,0-25-8.56-25.87-9.53-1.89-2.06-7-8.86-12.89-16.72-6.67-8.91-14.24-19-19.56-25.46-9.7-11.78-55.84-73.12-62.75-85.47s-5.87-36.82,1.92-43.5c7.4-6.35,39.08-21.16,66.45-31.08,54.49-19.74,223.86-82,246.43-91.86,10.07-4.41,18.54-6.56,25.89-6.56,8.77,0,16.28,3,23.64,9.52,9.34,8.25,41.91,50.29,63.47,78.12,6.95,9,13,16.74,16.94,21.75,17,21.44,13.82,31.46,3.18,40.68-13.3,10.27-116.34,61.5-199.14,102.67-44.62,22.19-83.16,41.35-95.32,48C146.64,413.72,135.74,416.89,125.69,416.89ZM345.31,107.71c-7.21,0-15.54,2.12-25.49,6.47-22.59,9.88-192,72.15-246.49,91.89C46.05,216,14.52,230.69,7.19,237s-8.32,30.39-1.69,42.25c6.88,12.32,53,73.56,62.64,85.33C73.48,371,81.05,381.12,87.73,390c5.89,7.84,11,14.62,12.82,16.64.87.94,8.92,9.21,25.14,9.21,9.88,0,20.62-3.13,31.91-9.31,12.18-6.67,50.72-25.83,95.35-48,82.76-41.15,185.76-92.36,199-102.55,10.43-9,13.24-18.38-3.33-39.29-4-5-10-12.77-17-21.76-21.52-27.79-54.06-69.79-63.33-78C361.12,110.66,353.82,107.71,345.31,107.71Z"/><path class="cls-3" d="M104.2,279c-9.56-3.47-15-6.68-17.67-4.23s-19.16,22.57-25.16,30.89-9,12.88-6.07,15.86S85.63,339.05,96.78,345s28.35,12.53,32.47,13.6,5.21,2.26,10.87-9.24S151.89,323,151.89,323Z"/><path class="cls-4" d="M111.4,276.69c-7.82,2.23-24.59,8-25.9,8.48s-7,10.17-6.65,12.53,9.84,48.37,11.08,51.95,5.32,7.1,11.17,5.13,55.19-15.49,58.87-17.16.36-13.31-2.79-23.36S124.89,275.18,111.4,276.69Z"/><path d="M79,298.18c2.14-.39,11.43-.79,11.39-4.4S86.66,288.21,86,285c-.13-.63-1.1-.36-1,.27.48,2.27,2.65,4.32,3.73,6.35a3.77,3.77,0,0,1,.59,2.3c-.17,1-2.47,1.59-3.19,1.82a64.56,64.56,0,0,1-7.43,1.45c-.63.11-.36,1.08.27,1Z"/><path d="M93.73,302.07a33,33,0,0,0,4.75-1.47c1.91-.65,3.91-1.08,5.83-1.71a101.3,101.3,0,0,1,12-3.71c.63-.12.36-1.09-.27-1-3.85.76-7.46,2.3-11.21,3.42s-7.56,2.78-11.4,3.47c-.63.11-.36,1.08.27,1Z"/><path d="M89.79,309.07c2.27-1.62,4.95-1.21,7.54-1.68,3.24-.59,6.34-2.05,9.4-3.21s6.25-2.32,9.46-3.23,6.41-1.17,9.6-1.86c.63-.14.36-1.1-.26-1-3.2.69-6.44,1-9.61,1.87a105.24,105.24,0,0,0-10.3,3.55c-3.1,1.17-6.52,2.94-9.9,3-2.24.07-4.56.28-6.43,1.62-.52.37,0,1.24.5.86Z"/><path d="M96,321.67c3.21-2.09,7.1-2.3,10.7-3.28,1.93-.53,3.77-1.26,5.66-1.93,1.25-.44,2.54-.44,3.74-1.1.56-.31.06-1.17-.51-.86-1.54.85-3.46,1-5.11,1.58a47.31,47.31,0,0,1-5.46,1.71c-3.28.79-6.64,1.14-9.52,3-.54.35,0,1.21.5.86Z"/><path d="M95.74,327c6.83-.38,13.28-3,19.78-4.9,3.69-1.09,7.37-2.17,11-3.38,2.93-1,6-1.51,8.76-3,.57-.3.06-1.16-.51-.86-2.67,1.43-5.67,1.9-8.52,2.87-3.33,1.14-6.72,2.12-10.09,3.11-6.7,2-13.41,4.75-20.44,5.14-.64,0-.65,1,0,1Z"/><path d="M99.24,335.38c2.89-.67,5.73-1.41,8.56-2.29,1.65-.52,3.63-.85,5-1.92.51-.38,0-1.25-.5-.86-1.48,1.12-3.64,1.45-5.38,2-2.63.82-5.29,1.49-8,2.12-.63.14-.36,1.11.26,1Z"/><path class="cls-5" d="M46.46,98.11c-5.58,2-14.05,7.57-12.43,17.57s16.48,67.83,23.24,89.18,6.48,24,16.21,35.4,33.51,48.37,44.86,57S130,306.47,147,300.79s88.63-41.88,102.69-48.37,25.13-11.62,21.07-20.54-11.07-16.48-23-28.64-35.13-34.59-37-37c-2.16-16.49-9.19-44.59-10.81-55.4s-6.48-35.13-8.37-42.43-6.22-11.89-21.89-7.3S62.4,92.44,46.46,98.11Z"/><path d="M44.21,99.11c-4.77,4.18-3.51,10.16-2.51,15.83,1.45,8.12,3.51,16.13,5.57,24.11C52,157.35,57,175.58,62,193.81c1.63,6,3.29,12,4.85,18a40.64,40.64,0,0,0,6.37,14.29c9.73,13.07,19.48,26.13,29.43,39a195.37,195.37,0,0,0,20.59,23.19c1.79,1.69,3.63,3.82,5.88,4.94s4.92.72,7.28.2c8.13-1.79,15.9-5.93,23.45-9.39,8.44-3.87,16.85-7.82,25.25-11.78q23-10.86,45.9-21.95c7-3.39,14-6.83,21-10.22,4.66-2.25,9.59-4.49,13.57-7.87,2-1.69,3.43-4,2.09-6.55-.3-.57-1.16-.06-.86.51,2.48,4.67-6.93,8.78-9.89,10.34-5.89,3.11-12,5.82-17.93,8.78-6.62,3.29-13.28,6.49-19.94,9.69Q192,268,164.7,280.73c-7.57,3.51-15.14,7.17-23,10-3.33,1.22-7.47,2.83-11.08,2-2.37-.57-4.24-2.87-5.95-4.45-14.63-13.59-26.18-30.14-38.12-46q-6.25-8.33-12.47-16.66c-3.27-4.39-5-9.21-6.38-14.47-4-15.43-8.36-30.76-12.53-46.14-3.21-11.89-6.44-23.77-9.37-35.73A164.61,164.61,0,0,1,42,110.1c-.49-4.11-.26-7.46,3-10.28.49-.43-.22-1.13-.71-.71Z"/><path d="M131.89,295.39V303a.5.5,0,0,0,1,0v-7.56a.5.5,0,0,0-1,0Z"/><path d="M69.32,230a29.71,29.71,0,0,1,2.51-3.8c1-1.37,1.81-1.23,3.36-1.65,3.31-.91,6.31-2.8,9.47-4.09,6.75-2.77,13.73-4.85,20.45-7.74,14.9-6.43,29.59-13.33,44.62-19.47,16.3-6.66,32.55-13.29,48.56-20.65,2.81-1.29,5.62-2.59,8.38-4,1-.51,2.87-1.13,3.53-2.16.34-.54-.52-1-.87-.5-.68,1.08-3.49,2-4.63,2.53-3.34,1.64-6.73,3.19-10.12,4.72q-12.39,5.63-24.92,10.94c-9,3.86-18.28,7.28-27.35,11.13-14.87,6.31-29.4,13.51-44.44,19.42-5.7,2.24-11.63,3.82-17.17,6.46-1.42.68-2.83,1.35-4.29,1.93a38.15,38.15,0,0,1-4.41,1c-.53.15-.79,1.16-1,1.57-.8,1.31-1.82,2.41-2.5,3.8-.29.57.58,1.08.86.5Z"/><path class="cls-6" d="M91.32,225.94c9.65-4.83,98.36-40.81,107.55-44.59s12.43-5.41,18.11.27,26.75,27.83,30.54,32.43,13.51,9.73.26,18.1-87.55,41.62-97,45.94-16.21,10.27-24.32,1.35S97.8,241.61,92.13,234.86,88.08,227.56,91.32,225.94Z"/><path d="M151.25,265.81a4.61,4.61,0,0,1-3.3-1.2l-1.43-1.35c-2.71-2.53-4.49-4.21-4.28-5.66a1.86,1.86,0,0,1,1.15-1.37c3.79-1.89,12.66-5.83,21.25-9.63,7.87-3.49,15.31-6.78,18.56-8.39,11.85-5.83,16.11-7.85,18.51-6.27l.1.06c3.88,2.55,6.23,4.09,6.17,5.86,0,1-.86,2-2.69,3-4,2.33-19.29,9.37-29.38,14l-4,1.84c-2.46,1.14-4.92,2.46-7.3,3.73C159.5,263.23,154.67,265.81,151.25,265.81Zm48.58-33.37c-2.5,0-7.27,2.28-16.19,6.67-3.27,1.61-10.72,4.91-18.6,8.4-8.57,3.8-17.44,7.73-21.21,9.62-.55.28-.59.53-.6.62-.14.93,1.86,2.8,4,4.78.46.43,1,.88,1.44,1.35a3.59,3.59,0,0,0,2.61.93c3.17,0,7.89-2.53,12.9-5.19,2.39-1.28,4.87-2.6,7.35-3.76l4-1.84c10.07-4.65,25.29-11.68,29.29-14,1.46-.84,2.18-1.56,2.19-2.2,0-1.22-2.37-2.8-5.72-5l-.09-.06A2.38,2.38,0,0,0,199.83,232.44Z"/><path d="M133.81,272c-2.3,0-3.49-1.54-4.74-3.16-1.46-1.89-2-3.48-1.77-4.73a2.73,2.73,0,0,1,1.54-1.83,54.61,54.61,0,0,1,7.51-3.14,3.9,3.9,0,0,1,1.08-.17c1.6,0,2.56,1.16,3.77,2.62l.8.94.08.09c1,1.2,2.13,2.44,1.82,3.9s-1.72,2.55-4.5,3.82A14.24,14.24,0,0,1,133.81,272Zm3.62-12a2.6,2.6,0,0,0-.79.13,53.36,53.36,0,0,0-7.35,3.07,1.73,1.73,0,0,0-1,1.16c-.22.93.33,2.28,1.58,3.9s2.22,2.77,3.95,2.77a13.69,13.69,0,0,0,5.18-1.57c2.4-1.09,3.72-2.14,3.93-3.12s-.67-2-1.6-3l-.07-.09-.82-1C139.35,261,138.56,260,137.43,260Z"/><path d="M125.7,261.4c-2.3,0-3.48-1.54-4.74-3.16-1.46-1.88-2-3.48-1.77-4.73a2.73,2.73,0,0,1,1.54-1.83,53,53,0,0,1,7.51-3.14,4,4,0,0,1,1.08-.17c1.6,0,2.56,1.16,3.77,2.62.26.3.52.62.81.95l.07.08c1.05,1.2,2.14,2.44,1.82,3.9s-1.71,2.56-4.49,3.82A14.28,14.28,0,0,1,125.7,261.4Zm3.62-12a3,3,0,0,0-.79.13,52.65,52.65,0,0,0-7.35,3.07,1.73,1.73,0,0,0-1,1.16c-.21.94.33,2.29,1.58,3.9,1.37,1.77,2.23,2.77,4,2.77a13.65,13.65,0,0,0,5.18-1.57c2.4-1.09,3.73-2.14,3.94-3.12s-.67-2-1.6-3l-.07-.09c-.3-.33-.57-.65-.82-1C131.24,250.32,130.45,249.37,129.32,249.37Z"/><path d="M117.59,250.77c-2.3,0-3.48-1.53-4.73-3.16-1.46-1.88-2.06-3.48-1.77-4.73a2.76,2.76,0,0,1,1.53-1.83,52.6,52.6,0,0,1,7.52-3.14,3.85,3.85,0,0,1,1.08-.17c1.59,0,2.55,1.16,3.77,2.62.25.3.51.62.8.95l.08.08c1,1.2,2.13,2.44,1.82,3.9s-1.72,2.56-4.5,3.83A14.35,14.35,0,0,1,117.59,250.77Zm3.63-12a3,3,0,0,0-.8.13,52.21,52.21,0,0,0-7.35,3.08,1.75,1.75,0,0,0-1,1.15c-.21.94.34,2.28,1.59,3.9,1.36,1.77,2.22,2.77,3.94,2.77a13.77,13.77,0,0,0,5.18-1.56c2.4-1.1,3.73-2.15,3.94-3.13s-.67-2-1.6-3L125,242c-.3-.33-.57-.66-.82-1C123.13,239.69,122.34,238.74,121.22,238.74Z"/><path d="M109.48,240.14c-2.29,0-3.48-1.53-4.73-3.15-1.46-1.89-2.06-3.49-1.77-4.74a2.75,2.75,0,0,1,1.54-1.83,57.3,57.3,0,0,1,7.51-3.14,3.87,3.87,0,0,1,1.08-.16c1.6,0,2.56,1.15,3.77,2.61l.8,1,.08.08c1,1.2,2.13,2.44,1.82,3.9s-1.72,2.56-4.5,3.83A14.35,14.35,0,0,1,109.48,240.14Zm3.63-12a3,3,0,0,0-.8.12,53.94,53.94,0,0,0-7.35,3.08,1.74,1.74,0,0,0-1,1.16c-.21.93.34,2.28,1.59,3.89,1.37,1.77,2.22,2.77,3.94,2.77a13.81,13.81,0,0,0,5.19-1.56c2.4-1.1,3.72-2.15,3.93-3.13s-.67-2-1.59-3l-.08-.09-.82-1C115,229.06,114.24,228.12,113.11,228.12Z"/><path d="M141.73,254.28c-2.3,0-3.48-1.53-4.73-3.15-1.46-1.89-2.06-3.48-1.77-4.74a2.72,2.72,0,0,1,1.53-1.82,52.41,52.41,0,0,1,7.52-3.14,3.52,3.52,0,0,1,1.08-.17c1.59,0,2.55,1.15,3.77,2.61.25.3.51.62.8.95l.07.08c1.06,1.2,2.14,2.44,1.83,3.9s-1.72,2.56-4.5,3.83A14.35,14.35,0,0,1,141.73,254.28Zm3.63-12a2.67,2.67,0,0,0-.8.13,53.16,53.16,0,0,0-7.35,3.07,1.74,1.74,0,0,0-1,1.16c-.21.93.34,2.28,1.59,3.9s2.22,2.76,3.94,2.76a13.77,13.77,0,0,0,5.18-1.56c2.41-1.1,3.73-2.15,3.94-3.13s-.67-2-1.6-3l-.07-.08-.82-1C147.27,243.2,146.49,242.26,145.36,242.26Z"/><path d="M133.63,243.65c-2.3,0-3.49-1.53-4.74-3.15-1.46-1.89-2.06-3.48-1.77-4.73a2.71,2.71,0,0,1,1.54-1.83,51.83,51.83,0,0,1,7.51-3.14,3.56,3.56,0,0,1,1.08-.17c1.6,0,2.56,1.15,3.77,2.61l.8.95.08.08c1,1.2,2.13,2.44,1.82,3.9s-1.72,2.56-4.5,3.83A14.36,14.36,0,0,1,133.63,243.65Zm3.62-12a2.67,2.67,0,0,0-.8.13,53.67,53.67,0,0,0-7.35,3.07,1.7,1.7,0,0,0-1,1.16c-.22.93.33,2.28,1.58,3.9s2.22,2.76,3.95,2.76a13.63,13.63,0,0,0,5.18-1.56c2.4-1.1,3.72-2.15,3.93-3.13s-.67-2-1.59-3l-.08-.08-.82-1C139.16,232.57,138.38,231.63,137.25,231.63Z"/><path d="M125.52,233c-2.3,0-3.48-1.53-4.74-3.15-1.46-1.89-2-3.48-1.77-4.73a2.71,2.71,0,0,1,1.54-1.83,52.78,52.78,0,0,1,7.51-3.14,4,4,0,0,1,1.08-.17c1.6,0,2.56,1.15,3.78,2.61.25.31.51.62.8.95l.07.09c1.05,1.2,2.14,2.44,1.82,3.89s-1.71,2.56-4.49,3.83A14.4,14.4,0,0,1,125.52,233Zm3.62-12a2.65,2.65,0,0,0-.79.13A53.16,53.16,0,0,0,121,224.2a1.71,1.71,0,0,0-1,1.16c-.21.93.33,2.28,1.58,3.9,1.37,1.77,2.22,2.76,4,2.76a13.58,13.58,0,0,0,5.18-1.56c2.4-1.09,3.73-2.15,3.94-3.13s-.67-2-1.6-3l-.08-.09c-.29-.33-.56-.66-.81-1C131.06,222,130.27,221,129.14,221Z"/><path d="M157.77,247.16c-2.3,0-3.49-1.53-4.74-3.15-1.46-1.89-2.05-3.48-1.77-4.73a2.71,2.71,0,0,1,1.54-1.83,54,54,0,0,1,7.51-3.14,3.9,3.9,0,0,1,1.08-.17c1.6,0,2.56,1.16,3.77,2.62l.8.94.08.09c1.05,1.2,2.13,2.44,1.82,3.9s-1.72,2.55-4.5,3.82A14.19,14.19,0,0,1,157.77,247.16Zm3.62-12a2.67,2.67,0,0,0-.8.13,53,53,0,0,0-7.34,3.07,1.73,1.73,0,0,0-1,1.16c-.22.93.33,2.28,1.58,3.9s2.22,2.76,4,2.76A13.63,13.63,0,0,0,163,244.6c2.4-1.09,3.72-2.15,3.93-3.12s-.66-2-1.59-3l-.08-.09c-.29-.33-.56-.66-.81-1C163.31,236.09,162.52,235.14,161.39,235.14Z"/><path d="M149.66,236.54c-2.3,0-3.48-1.53-4.74-3.16-1.46-1.89-2-3.48-1.77-4.73a2.73,2.73,0,0,1,1.54-1.83,53.57,53.57,0,0,1,7.52-3.14,3.84,3.84,0,0,1,1.07-.17c1.6,0,2.56,1.16,3.77,2.62.26.3.52.62.81.94l.07.09c1,1.2,2.14,2.44,1.82,3.9s-1.71,2.56-4.49,3.83A14.4,14.4,0,0,1,149.66,236.54Zm3.62-12a3,3,0,0,0-.79.13,51.07,51.07,0,0,0-7.35,3.08,1.7,1.7,0,0,0-1,1.15c-.21.93.33,2.28,1.58,3.9s2.22,2.77,3.95,2.77a13.77,13.77,0,0,0,5.18-1.56c2.4-1.1,3.73-2.15,3.94-3.13s-.67-2-1.6-3l-.08-.09c-.29-.33-.56-.66-.81-1C155.2,225.46,154.41,224.51,153.28,224.51Z"/><path d="M141.55,225.91c-2.3,0-3.48-1.53-4.73-3.16-1.46-1.89-2.06-3.48-1.77-4.73a2.76,2.76,0,0,1,1.53-1.83,52.6,52.6,0,0,1,7.52-3.14,3.82,3.82,0,0,1,1.08-.16c1.59,0,2.55,1.15,3.77,2.61.25.3.51.62.8.95l.07.08c1.05,1.2,2.14,2.44,1.83,3.9s-1.72,2.56-4.5,3.83A14.35,14.35,0,0,1,141.55,225.91Zm3.63-12a3,3,0,0,0-.8.12,52.71,52.71,0,0,0-7.35,3.08,1.75,1.75,0,0,0-1,1.15c-.21.94.34,2.29,1.59,3.9,1.36,1.77,2.22,2.77,3.94,2.77a13.77,13.77,0,0,0,5.18-1.56c2.4-1.1,3.73-2.15,3.94-3.13s-.67-2-1.6-3l-.07-.09-.82-1C147.09,214.83,146.31,213.89,145.18,213.89Z"/><path d="M173.8,240.05c-2.3,0-3.48-1.53-4.73-3.15-1.46-1.89-2.06-3.49-1.78-4.74a2.77,2.77,0,0,1,1.54-1.83,52.53,52.53,0,0,1,7.52-3.13,3.52,3.52,0,0,1,1.08-.17c1.59,0,2.55,1.15,3.77,2.61.25.3.51.62.8,1l.07.08c1.05,1.2,2.14,2.44,1.82,3.9s-1.71,2.56-4.49,3.83A14.35,14.35,0,0,1,173.8,240.05Zm3.63-12a3,3,0,0,0-.8.12,53.94,53.94,0,0,0-7.35,3.08,1.69,1.69,0,0,0-1,1.16c-.21.93.34,2.28,1.59,3.89,1.36,1.77,2.22,2.77,3.94,2.77a13.77,13.77,0,0,0,5.18-1.56c2.4-1.1,3.73-2.15,3.94-3.13s-.67-2-1.6-3l-.08-.08c-.29-.34-.56-.66-.81-1C179.34,229,178.55,228,177.43,228Z"/><path d="M165.69,229.42c-2.3,0-3.48-1.53-4.73-3.15-1.46-1.89-2.06-3.48-1.77-4.74a2.76,2.76,0,0,1,1.53-1.83,52.81,52.81,0,0,1,7.52-3.13,3.52,3.52,0,0,1,1.08-.17c1.59,0,2.55,1.15,3.77,2.61.25.31.51.62.8,1l.07.08c1,1.2,2.14,2.44,1.83,3.9s-1.72,2.56-4.5,3.83A14.35,14.35,0,0,1,165.69,229.42Zm3.63-12a3,3,0,0,0-.8.12,51.55,51.55,0,0,0-7.35,3.08,1.74,1.74,0,0,0-1,1.16c-.21.93.34,2.28,1.59,3.9s2.22,2.76,3.94,2.76a13.72,13.72,0,0,0,5.18-1.56c2.41-1.1,3.73-2.15,3.94-3.13s-.67-2-1.6-3l-.07-.08-.82-1C171.23,218.34,170.45,217.4,169.32,217.4Z"/><path d="M157.59,218.79c-2.3,0-3.49-1.53-4.74-3.15-1.46-1.89-2.06-3.48-1.77-4.73a2.71,2.71,0,0,1,1.54-1.83,53,53,0,0,1,7.51-3.14,3.56,3.56,0,0,1,1.08-.17c1.6,0,2.56,1.15,3.77,2.62l.8.94.08.08c1,1.2,2.13,2.44,1.82,3.9s-1.72,2.56-4.5,3.83A14.36,14.36,0,0,1,157.59,218.79Zm3.62-12a2.67,2.67,0,0,0-.8.13,52.53,52.53,0,0,0-7.34,3.07,1.69,1.69,0,0,0-1,1.16c-.22.93.33,2.28,1.58,3.9s2.22,2.76,4,2.76a13.58,13.58,0,0,0,5.18-1.56c2.4-1.1,3.72-2.15,3.93-3.13s-.67-2-1.59-3L165,210c-.29-.33-.56-.66-.81-1C163.13,207.72,162.34,206.77,161.21,206.77Z"/><path d="M189.83,232.93c-2.3,0-3.48-1.53-4.73-3.15-1.46-1.89-2.06-3.48-1.77-4.73a2.72,2.72,0,0,1,1.53-1.83,53.57,53.57,0,0,1,7.52-3.14,3.85,3.85,0,0,1,1.08-.17c1.59,0,2.55,1.15,3.77,2.61.25.3.51.62.8.95l.07.08c1.05,1.2,2.14,2.44,1.83,3.9s-1.72,2.56-4.5,3.83A14.35,14.35,0,0,1,189.83,232.93Zm3.63-12a2.67,2.67,0,0,0-.8.13,53.16,53.16,0,0,0-7.35,3.07,1.76,1.76,0,0,0-1,1.16c-.21.93.34,2.28,1.59,3.9s2.22,2.76,3.94,2.76a13.58,13.58,0,0,0,5.18-1.56c2.41-1.09,3.73-2.15,3.94-3.13s-.67-2-1.6-3l-.07-.08c-.29-.33-.56-.66-.82-1C195.37,221.86,194.59,220.91,193.46,220.91Z"/><path d="M181.73,222.3c-2.3,0-3.49-1.53-4.74-3.15-1.46-1.89-2.05-3.48-1.77-4.73a2.71,2.71,0,0,1,1.54-1.83,53,53,0,0,1,7.51-3.14,3.9,3.9,0,0,1,1.08-.17c1.6,0,2.56,1.16,3.77,2.61.25.31.52.62.8,1l.08.09c1.05,1.2,2.14,2.44,1.82,3.9s-1.72,2.55-4.5,3.82A14.36,14.36,0,0,1,181.73,222.3Zm3.62-12a2.72,2.72,0,0,0-.8.13,52.53,52.53,0,0,0-7.34,3.07,1.71,1.71,0,0,0-1,1.16c-.22.93.33,2.28,1.58,3.9,1.37,1.77,2.22,2.76,3.95,2.76a13.63,13.63,0,0,0,5.18-1.56c2.4-1.09,3.72-2.15,3.93-3.12s-.67-2-1.59-3l-.08-.09c-.29-.33-.56-.66-.82-1C187.27,211.23,186.48,210.28,185.35,210.28Z"/><path d="M173.62,211.68c-2.3,0-3.48-1.54-4.74-3.16-1.46-1.89-2-3.48-1.77-4.73a2.73,2.73,0,0,1,1.54-1.83,54,54,0,0,1,7.51-3.14,4,4,0,0,1,1.09-.17c1.59,0,2.55,1.15,3.76,2.61.25.31.52.62.81,1l.07.09c1.05,1.2,2.14,2.44,1.82,3.9s-1.71,2.55-4.49,3.82A14.28,14.28,0,0,1,173.62,211.68Zm3.63-12a2.67,2.67,0,0,0-.8.13,53.16,53.16,0,0,0-7.35,3.07,1.73,1.73,0,0,0-1,1.16c-.21.94.34,2.28,1.59,3.9,1.36,1.77,2.22,2.77,3.94,2.77a13.65,13.65,0,0,0,5.18-1.57c2.4-1.09,3.73-2.14,3.94-3.12s-.67-2-1.6-3l-.07-.09c-.3-.33-.57-.66-.83-1C179.16,200.6,178.37,199.65,177.25,199.65Z"/><path d="M205.87,225.82c-2.3,0-3.48-1.53-4.74-3.15-1.46-1.89-2-3.49-1.77-4.74a2.75,2.75,0,0,1,1.54-1.83,53,53,0,0,1,7.51-3.14,4,4,0,0,1,1.08-.17c1.6,0,2.56,1.16,3.77,2.62.26.3.52.62.81,1l.07.08c1.05,1.2,2.14,2.44,1.82,3.9s-1.72,2.56-4.49,3.82A14.32,14.32,0,0,1,205.87,225.82Zm3.62-12a3,3,0,0,0-.8.13,51.9,51.9,0,0,0-7.34,3.08,1.69,1.69,0,0,0-1,1.16c-.22.93.33,2.28,1.58,3.89,1.37,1.77,2.22,2.77,4,2.77a13.65,13.65,0,0,0,5.18-1.57c2.4-1.09,3.72-2.14,3.93-3.12s-.66-2-1.59-3l-.08-.09q-.44-.49-.81-1C211.41,214.74,210.62,213.79,209.49,213.79Z"/><path d="M212.71,236.63c-2.3,0-3.48-1.53-4.73-3.16-1.46-1.89-2.06-3.48-1.77-4.73a2.74,2.74,0,0,1,1.53-1.83,54.07,54.07,0,0,1,7.52-3.14,3.85,3.85,0,0,1,1.08-.17c1.59,0,2.55,1.16,3.77,2.62.25.3.51.62.8.95l.07.08c1.05,1.2,2.14,2.44,1.83,3.9s-1.72,2.56-4.5,3.83A14.35,14.35,0,0,1,212.71,236.63Zm3.63-12a3,3,0,0,0-.8.13,51.55,51.55,0,0,0-7.35,3.08,1.75,1.75,0,0,0-1,1.15c-.21.94.34,2.28,1.59,3.9s2.22,2.77,3.94,2.77a13.77,13.77,0,0,0,5.18-1.56c2.41-1.1,3.73-2.15,3.94-3.13s-.67-2-1.6-3l-.07-.09c-.3-.33-.56-.65-.82-1C218.25,225.55,217.47,224.6,216.34,224.6Z"/><path d="M229.83,229.6c-2.3,0-3.48-1.53-4.74-3.15-1.46-1.89-2.05-3.49-1.77-4.74a2.75,2.75,0,0,1,1.54-1.83,54,54,0,0,1,7.51-3.14,3.94,3.94,0,0,1,1.09-.16c1.59,0,2.55,1.15,3.77,2.61.25.3.51.62.8.95l.07.08c1.05,1.2,2.14,2.44,1.82,3.9s-1.71,2.56-4.49,3.83A14.4,14.4,0,0,1,229.83,229.6Zm3.63-12a3,3,0,0,0-.8.12,51.55,51.55,0,0,0-7.35,3.08,1.69,1.69,0,0,0-1,1.16c-.21.93.33,2.28,1.59,3.9s2.22,2.76,3.94,2.76A13.77,13.77,0,0,0,235,227c2.4-1.1,3.73-2.15,3.94-3.13s-.67-2-1.6-3l-.08-.08c-.29-.34-.56-.66-.81-1C235.37,218.52,234.58,217.58,233.46,217.58Z"/><path d="M197.76,215.19c-2.3,0-3.48-1.53-4.73-3.15-1.47-1.89-2.06-3.49-1.77-4.74a2.73,2.73,0,0,1,1.53-1.83,53.57,53.57,0,0,1,7.52-3.14,3.82,3.82,0,0,1,1.08-.16c1.59,0,2.55,1.15,3.77,2.61.25.3.51.62.8.95l.07.08c1.05,1.2,2.14,2.44,1.83,3.9s-1.72,2.56-4.5,3.83A14.35,14.35,0,0,1,197.76,215.19Zm3.63-12a3,3,0,0,0-.8.12,51.55,51.55,0,0,0-7.35,3.08,1.69,1.69,0,0,0-1,1.16c-.21.93.34,2.28,1.59,3.9s2.22,2.76,3.94,2.76a13.77,13.77,0,0,0,5.18-1.56c2.4-1.1,3.73-2.15,3.94-3.13s-.67-2-1.6-3l-.07-.09c-.3-.33-.57-.65-.82-1C203.3,204.11,202.51,203.17,201.39,203.17Z"/><path d="M189.65,204.56c-2.29,0-3.48-1.53-4.73-3.15-1.46-1.89-2.06-3.49-1.77-4.74a2.75,2.75,0,0,1,1.54-1.83,53,53,0,0,1,7.51-3.14,3.82,3.82,0,0,1,1.08-.16c1.59,0,2.55,1.15,3.77,2.61.25.3.51.62.8.95l.08.08c1,1.2,2.13,2.44,1.82,3.9s-1.72,2.56-4.5,3.83A14.35,14.35,0,0,1,189.65,204.56Zm3.63-12a3,3,0,0,0-.8.12,52.73,52.73,0,0,0-7.35,3.08,1.74,1.74,0,0,0-1,1.16c-.21.93.34,2.28,1.59,3.9s2.22,2.76,3.94,2.76a13.77,13.77,0,0,0,5.18-1.56c2.41-1.1,3.73-2.15,3.94-3.13s-.67-2-1.6-3l-.07-.08-.82-1C195.19,193.48,194.4,192.54,193.28,192.54Z"/><path d="M221.9,218.7c-2.3,0-3.48-1.53-4.73-3.15-1.46-1.89-2.06-3.48-1.77-4.73a2.69,2.69,0,0,1,1.53-1.83,52.41,52.41,0,0,1,7.52-3.14,3.52,3.52,0,0,1,1.08-.17c1.59,0,2.55,1.15,3.77,2.61.25.31.51.62.8,1l.07.09c1.05,1.2,2.14,2.43,1.83,3.89s-1.72,2.56-4.5,3.83A14.35,14.35,0,0,1,221.9,218.7Zm3.63-12a2.67,2.67,0,0,0-.8.13,53.16,53.16,0,0,0-7.35,3.07,1.69,1.69,0,0,0-1,1.16c-.21.93.34,2.28,1.59,3.9s2.22,2.76,3.94,2.76a13.77,13.77,0,0,0,5.18-1.56c2.4-1.1,3.73-2.15,3.94-3.13s-.67-2-1.6-3l-.07-.09c-.3-.33-.57-.66-.82-1C227.44,207.63,226.65,206.68,225.53,206.68Z"/><path d="M213.79,208.07c-2.3,0-3.48-1.53-4.73-3.15-1.46-1.89-2.06-3.48-1.77-4.73a2.72,2.72,0,0,1,1.53-1.83,52.22,52.22,0,0,1,7.52-3.14,3.52,3.52,0,0,1,1.08-.17c1.6,0,2.56,1.15,3.77,2.62l.8.94.08.09c1.05,1.2,2.13,2.44,1.82,3.89s-1.72,2.56-4.5,3.83A14.35,14.35,0,0,1,213.79,208.07Zm3.63-12a2.67,2.67,0,0,0-.8.13,51.47,51.47,0,0,0-7.35,3.07,1.74,1.74,0,0,0-1,1.16c-.21.93.34,2.28,1.59,3.9s2.22,2.76,3.94,2.76a13.58,13.58,0,0,0,5.18-1.56c2.41-1.1,3.73-2.15,3.94-3.13s-.67-2-1.6-3l-.07-.09-.82-1C219.33,197,218.55,196.05,217.42,196.05Z"/><path d="M205.69,197.44c-2.3,0-3.49-1.53-4.74-3.15-1.46-1.89-2-3.48-1.77-4.73a2.71,2.71,0,0,1,1.54-1.83,53,53,0,0,1,7.51-3.14,3.9,3.9,0,0,1,1.08-.17c1.6,0,2.56,1.16,3.77,2.62.26.3.52.62.81.94l.07.09c1,1.2,2.14,2.44,1.82,3.89s-1.72,2.56-4.5,3.83A14.32,14.32,0,0,1,205.69,197.44Zm3.62-12a2.67,2.67,0,0,0-.8.13,52.53,52.53,0,0,0-7.34,3.07,1.71,1.71,0,0,0-1,1.16c-.22.93.33,2.28,1.58,3.9s2.22,2.76,3.95,2.76a13.63,13.63,0,0,0,5.18-1.56c2.4-1.09,3.72-2.15,3.93-3.13s-.66-2-1.59-3l-.08-.09c-.29-.33-.56-.66-.81-1C211.23,186.37,210.44,185.42,209.31,185.42Z"/><path class="cls-6" d="M62.67,103.88c-5.81,2.24-12.61,4.86-11.35,11.53,1.69,8.89,8.29,34.05,12.07,49.73s9.73,35.85,11,40.71,2,10.63,8.83,7.75S183.92,170.54,192,166.4s10.62-4.69,9-11.17-10.81-59.1-13.51-71.89-4.14-16.21-15.13-13S74.38,99.38,62.67,103.88Z"/><path class="cls-2" d="M159.23,166.4c-1.38.81-7.32,3.56-15,7l-3.3,1.48c-4.19,1.88-8.77,3.89-13.33,5.89-7.19,3.14-14.38,6.25-20.11,8.65-4.67,1.95-8.38,3.44-10.36,4.13-9.36,3.24-12.6.54-15.31-8.29s-14.59-50.44-16.4-57.65,2-9.69,9.73-12.61c6.67-2.53,46.84-15.13,59.46-19.28s12.61,1.62,14.23,7c.17.56.44,1.48.77,2.69,2.1,7.56,7.1,26.37,10.46,38.78.24.87.47,1.7.68,2.5.11.42.22.82.33,1.21l.06.23c.2.7.37,1.35.53,2,.52,1.83.93,3.31,1.22,4.33C165.18,162.62,163.56,163.87,159.23,166.4Z"/><path class="cls-4" d="M144.18,173.45l-3.3,1.48c-1.58-3-5.07-12.41-6.64-16.22-.13-.33-.25-.64-.35-.87l2.83-2,.79,1.91C139.11,161.59,142.67,170.18,144.18,173.45Z"/><path class="cls-2" d="M161,148c-2.89,2.45-36.62,14.68-37.15,13s-4.59-33.38-5.27-38.38-.54-5.54,3.38-6.89,19.78-8,27.57-10.19"/><path d="M124.34,161.6a1.63,1.63,0,0,1-.43,0,.7.7,0,0,1-.51-.46c-.4-1.3-2.48-17.08-4.4-31.77-.41-3.13-.73-5.57-.88-6.69-.7-5.13-.52-6,3.71-7.42,1.22-.42,3.62-1.36,6.65-2.55,6.58-2.58,15.6-6.12,20.94-7.65a.5.5,0,1,1,.28,1c-5.3,1.52-14.29,5-20.85,7.62-3,1.19-5.45,2.13-6.69,2.56-3.6,1.24-3.72,1.48-3,6.35.15,1.12.47,3.56.88,6.69,1.34,10.25,3.8,29,4.33,31.43,3,.3,33.46-10.53,36.38-13a.5.5,0,1,1,.65.76C158.68,150.64,129.16,161.6,124.34,161.6Z"/><path d="M127.55,180.82c-7.19,3.14-14.38,6.25-20.11,8.65-1.87-4.8-4.86-14.43-5.13-18.84,6.48-4.72,16.57-5.09,16.57-5.09S125.75,174.48,127.55,180.82Z"/><path class="cls-3" d="M89.7,170.67C89.16,173.78,85,178,87,180.4s5-1.08,5.54-4.32c-.27,5.81,3.11,2.43,1.63-4.19A3.71,3.71,0,0,0,89.7,170.67Z"/><path class="cls-3" d="M123.34,135.14c.27-4.06,1.49-6.35,3.11-5.95s-.41,2.57-.41,2.57c3.25-1.62,6-3.38,6.49-1.22s-4.05,5.41-5.27,6.22S123.34,135.14,123.34,135.14Z"/><path class="cls-7" d="M86.9,171.8c-.17.9,6.58,1.62,7.93,1.89s2.79-11.12,3.06-12.88c1,8.38,1.85,12.25,2.8,12.25s20.08-6.84,20-8.33-5.41-11.89-5.41-11.89c5.54,2.16,12.44.94,13.25-15.54-2.71-1.76-5.41-2.57-5.81-2.3s-1.49,10.14-4.19,10.27-8.92-5-15.81-2.7S88.53,150.27,86.9,171.8Z"/><path class="cls-3" d="M99.15,144.73c-.54-2.3-.54-4.46-1.62-4.59A8.94,8.94,0,0,1,90,131.69c-.67-7,9.29-10.47,11.72-7.23s4.33,8.79,1.89,12.7c-1.89,2.44-.4,3.38,0,5.68S99.83,146.22,99.15,144.73Z"/><path class="cls-4" d="M134,118.38c1.62,2,3.37,3,3.37,4.33.14,3-9.32,14.32,3.79,17.83,10,2.68,11.62-6.35,11.35-11.48s-10.41-6.89-9.87-7.84c.81-5,1.08-5.67.14-5.67S134.42,117.3,134,118.38Z"/><path class="cls-8" d="M131.45,145.41c3.92-2.3,13.1-12.43,15.13-13.65s4.6,8.51-1.21,13.51S132.53,148.51,131.45,145.41Z"/><path class="cls-4" d="M152.66,93.7c2.43-.81,15-5,16-5.31s1.35,2.88,1.62,5,.18,2.34-2.44,3.24-11.43,3.79-12.79,4.06-1.62-.54-2-2.07S151.76,94.15,152.66,93.7Z"/><path class="cls-5" d="M182.75,88.12c.64-3.64-6.76-5.5-7.84,0S181.85,93.25,182.75,88.12Z"/><path d="M157.26,108.88a12,12,0,0,0,5.36-1.35c2.48-1.11,4.92-2.27,7.43-3.32a76.89,76.89,0,0,1,7.71-3c2.45-.73,4.91-1.17,7.18-2.38.57-.31.06-1.17-.51-.87a31.83,31.83,0,0,1-6.93,2.29,47.39,47.39,0,0,0-6.11,2.32c-2.16.92-4.37,1.73-6.49,2.73-2.48,1.16-4.81,2.66-7.64,2.59a.5.5,0,0,0,0,1Z"/><path d="M159.94,115.17c5.18-2.34,10.69-3.78,16-5.9.59-.24.33-1.2-.27-1-5.34,2.14-10.93,3.62-16.19,6-.59.27-.08,1.13.5.87Z"/><path d="M179.14,108.46a54.48,54.48,0,0,0,7.43-2.16c.6-.23.34-1.19-.26-1a56.38,56.38,0,0,1-7.43,2.16c-.63.14-.37,1.1.26,1Z"/><path d="M161.83,121.52c2.56-1.67,5.76-1.76,8.51-3,.59-.26.08-1.12-.5-.86-2.77,1.22-5.94,1.3-8.51,3-.54.35,0,1.22.5.87Z"/><path d="M164.14,128.73c4.23-.72,8.17-2.37,12.16-3.89,4.38-1.67,8.92-2.81,13.38-4.22.61-.19.35-1.16-.26-1-4.19,1.32-8.46,2.37-12.57,3.92s-8.46,3.41-13,4.18c-.64.11-.37,1.08.26,1Z"/><path d="M164.8,134.62c2.55-1.13,5.27-1.68,7.89-2.61,2.82-1,5.47-2.38,8.34-3.28.62-.19.36-1.16-.26-1-2.87.91-5.56,2.17-8.35,3.29s-5.49,1.54-8.12,2.71c-.59.26-.08,1.12.5.86Z"/><path d="M167.2,141.3c1.74-1.45,4.22-1.63,6.31-2.31,2.32-.74,4.6-1.63,6.85-2.56.59-.24.33-1.21-.27-1a76.26,76.26,0,0,1-8.31,3c-1.9.53-3.73.81-5.28,2.11-.5.42.21,1.12.7.71Z"/><path d="M168.18,146.78c1.95-1.29,4.21-1.71,6.42-2.36s4.46-1.53,6.68-2.33a61.18,61.18,0,0,0,12-5.44c.55-.34.05-1.2-.5-.86-4.22,2.62-8.85,4.06-13.4,6-3.78,1.59-8.29,1.89-11.73,4.17-.54.36,0,1.22.5.86Z"/><path d="M169.53,156.11c4.37-2.25,9.12-3.62,13.52-5.81.57-.29.07-1.15-.51-.87-4.4,2.2-9.14,3.57-13.51,5.81-.58.3-.07,1.16.5.87Z"/><path d="M196.15,272.06a2.45,2.45,0,0,1-1.35-.35c-1.08-.66-1.37-2.17-1.47-4.22l1-.05c.07,1.5.25,3,1,3.42s1.86.2,3.7-.61a92.12,92.12,0,0,0,10.91-5.36c2-1.36,2.83-2.28,2.49-6l1-.09c.37,4.06-.56,5.37-2.92,7a89.24,89.24,0,0,1-11.06,5.44A8.5,8.5,0,0,1,196.15,272.06Z"/><path d="M102.8,123.52c-.13-3.24-8.14-2.86-12.83,2.73A3.79,3.79,0,0,0,89.5,130a3.23,3.23,0,0,0-1,2.17c-.23,3.58,2.28,8.48,6.42,7.13a7.91,7.91,0,0,0-1-2.23c-3.25.64-3.25-4.16-.58-2.57,1.64.36-1.16-4,1-5.94C97.8,125.27,102.94,126.76,102.8,123.52Z"/><path class="cls-4" d="M221.9,150.76c-1.89,5.56-1.5,14.5,8.14,18.61s41.6,2.95,49.35-3.91c6.05-5.35,4.05-13.79.37-20.59C273.52,133.34,227.86,133.57,221.9,150.76Z"/><path class="cls-2" d="M320,288.15c3.81-4.59,14.64-19.9,5.61-36.61-10.45-2.16-16-7.56-17.83-8.1s-7.78,5.18-16,6.48c-26.3,4.15-28.51,16.7-28.59,16.75-6.27-2.59-15.61-2.77-30.14,5.59C209.18,286,205,288.84,202.15,291.18c.41.64,1.14,1.73,2.1,3.11-1.44,1-3.35,1.41-3.18,2.29s17.78,29,23.43,34.35a34.49,34.49,0,0,0,2.52,3.13c3.78,4,40.71-9,53.86-15.14s42.7-20.54,41.08-25.22C321.38,292,320.69,290.07,320,288.15Z"/><path d="M230,335.29h0c-1.68,0-2.77-.29-3.35-.89a34.9,34.9,0,0,1-2.55-3.18c-5.7-5.35-23.32-33.56-23.52-34.54s.77-1.4,1.78-1.9c.38-.18.79-.39,1.19-.63-.84-1.2-1.46-2.13-1.82-2.71a.5.5,0,0,1,.11-.65c2.84-2.31,6.92-5.17,30.87-19,8.34-4.8,15.8-7.24,22.16-7.24a22,22,0,0,1,7.92,1.42c1-3,6.13-13,28.82-16.58,4.84-.76,8.84-3.05,11.77-4.72,2.13-1.22,3.58-2,4.49-1.75a11.8,11.8,0,0,1,2.44,1.4,42,42,0,0,0,15.35,6.69.5.5,0,0,1,.34.26c9.06,16.76-1.64,32.24-5.47,36.94.69,1.82,1.34,3.68,1.9,5.29,1.62,4.69-21.58,16.64-41.34,25.84C269.08,325,239.94,335.29,230,335.29Zm-27.18-44c.41.64,1,1.57,1.84,2.71a.5.5,0,0,1-.12.69,12,12,0,0,1-1.74,1c-.44.22-1.27.63-1.24.81.44,1.15,17.66,28.77,23.28,34.07a34.34,34.34,0,0,0,2.54,3.15c.21.22.82.58,2.62.58,9.64,0,39-10.4,50.67-15.82,25.81-12,41.83-21.68,40.81-24.61-.58-1.68-1.26-3.64-2-5.53a.48.48,0,0,1,.08-.5c3.54-4.26,14.38-19.43,5.66-35.84a43.73,43.73,0,0,1-15.47-6.79,12.57,12.57,0,0,0-2.18-1.29h-.12c-.65,0-2,.78-3.59,1.68-3,1.71-7.09,4-12.1,4.84-23.55,3.71-27.59,14.22-28.16,16.29a.69.69,0,0,1-.24.38.47.47,0,0,1-.46,0,20.94,20.94,0,0,0-8-1.54c-6.19,0-13.47,2.39-21.66,7.11C210.29,285.9,205.64,289,202.82,291.29Z"/><path d="M203.82,294.54c2.52,4.56,6.23,8.55,9.29,12.75,3.82,5.22,7.53,10.54,10.95,16,.34.54,1.21,0,.87-.51-3.26-5.22-6.78-10.29-10.4-15.27-3.24-4.45-7.19-8.68-9.85-13.5-.31-.57-1.18-.06-.86.5Z"/><path d="M262.75,267c4.78,4.7,9.16,9.76,13.45,14.9s9.21,10.31,12.9,16c.35.54,1.22,0,.86-.51-3.58-5.52-8.27-10.43-12.47-15.49a207.5,207.5,0,0,0-14-15.6c-.46-.46-1.17.25-.71.7Z"/><path d="M2.78,241.5c-1.09,4.07-.11,8.39,1.11,12.31A82.38,82.38,0,0,0,12,270.94c7.42,12.56,16.88,24,25.55,35.72,7.4,10,14.77,20,22.64,29.64,5.56,6.81,11.51,13.33,17.43,19.84,6.91,7.6,13.91,15.13,21,22.51,4.36,4.5,8.71,9.39,14,12.78,17.15,10.93,38.71-1.88,54.57-9.32q28.65-13.42,57.11-27.26c.58-.28.07-1.15-.51-.87q-20,9.67-40,19.18c-9.76,4.64-19.53,9.26-29.35,13.77-10.23,4.71-22,9.43-33.48,6.91-6.37-1.4-11.23-5.48-15.76-9.91-6.58-6.45-12.86-13.21-19.13-20C79.34,356.61,72.58,349.18,66,341.6c-6.89-7.92-13.25-16.28-19.55-24.68-9.42-12.54-19.07-25-28-37.88A118.14,118.14,0,0,1,6.8,258.72c-2.2-5.05-4.55-11.4-3.06-17a.5.5,0,0,0-1-.27Z"/><path d="M382.62,271.61c5.1.06,10.34-2.22,15-4.06,7.37-2.94,14.52-6.43,21.58-10,11.52-5.89,23.41-11.94,34-19.41.53-.37,0-1.23-.5-.86-10.29,7.24-21.8,13.1-32.95,18.86-7,3.63-14.15,7.1-21.47,10.11-4.79,2-10.35,4.46-15.64,4.4a.5.5,0,0,0,0,1Z"/><path class="cls-8" d="M307.91,274.79c-4.33-.37-14.06,2.52-18.56.71s1.08-5.4,6.67-4.86,10.45-2.52,4-4.14-18.38.18-12.43-5.59c1.44-3.24,5-4.32,6.67-4,2.34-6.49,19.45,2.88,25.94,2.34C325,267.76,325,273.52,307.91,274.79Z"/><path class="cls-3" d="M308.68,153.3c-8.18,4.33-14.59,16.21-15.72,22.94s-.71,9.19-2.71,9.34c-3,.22-5.7-.09-6.42,1.76-1.31,3.36,4.16,3.66,4,7.83s-3.53,19.09-.48,28.71S296,238.32,304,239.76s11.87-3.21,12.67,5.3,2.57,25.18,2.57,25.18l32.56-7.7-6.25-27S360.33,147.21,308.68,153.3Z"/><path d="M317.62,258c.3,5.3,1.26,10.81.63,16.11-.07.64.93.64,1,0,.63-5.3-.33-10.81-.63-16.11,0-.64-1-.65-1,0Z"/><path d="M306.93,154.36c2.4,0,8.33,1.83,8.65,5.84-3.53,7.86-1.93,14.44,4.33,18.77s9.95,8.34,2.25,15.24-7.86,15.56,1.44,21.65,11.55,8.18,7.7,16.2-9.17,15.38-1.38,24.73c7.57-5.56,15-6.12,21.91-5.48s11.23,0,15.4-8.18,13-4.65,19.89-2.56,10.43-.49,13.8-8.51,9.78-6.73,14.43-7.86,6.26-13.31,10.43-15.07c-6.42-5.3-9.58-.92-13.27-5.09s1.12-13-4-18.92-13,1.2-14.9-3.77,8.6-10.24-2.31-22.59-19.25-2.73-26.47-12S323.45,135.44,306.93,154.36Z"/><path d="M301,168c2.94,0,5.4,2.5,6.31,5.13.19.54,1,.31.86-.23-1-3-3.82-5.82-7.17-5.79a.45.45,0,0,0,0,.89Z"/><path d="M288.29,205.11a6.74,6.74,0,0,0,5.38,1.75c2.3-.39,3.85-1.92,5.57-3.39.44-.37-.2-1-.63-.63-2.91,2.49-6.12,4.7-9.69,1.64-.43-.37-1.06.26-.63.63Z"/><path d="M302.56,185.26c-.29,1.91-1.45,3.31-2.59,3.13s-1.82-1.86-1.53-3.76,1.46-3.31,2.59-3.13S302.86,183.36,302.56,185.26Z"/><path d="M272.77,299.29c-1.25.71-5.4-.54-9.73-2.53-.05-.08-.13-.16-.21-.27-3.2-3.68-27.66-28-32.39-34.86a.75.75,0,0,1-.06-.13c-2.81-5.18,8.73-10.29,11.59-7.44s26.48,33.7,28.28,35.5a5.49,5.49,0,0,1,.78,1.07C272.56,293.29,273.85,298.67,272.77,299.29Z"/><path class="cls-4" d="M230.38,261.5c-2.81-5.18,8.73-10.29,11.59-7.44C243.87,257.87,234.33,265.65,230.38,261.5Z"/><path class="cls-4" d="M272.77,299.29c-1.25.71-5.4-.54-9.73-2.53-.05-.08-.13-.16-.21-.27a7.28,7.28,0,0,0,8.2-5.86C272.56,293.29,273.85,298.67,272.77,299.29Z"/><path class="cls-3" d="M235.3,300.19c.18-7,3-20.14,9.31-22.66,2.64,2.69,4.35,4.53,4.35,4.53-1.44,4.51,2.74,7.68,6.34,5.88s5-6.49,9.19-7,2.34,3.78-.54,8.83-6.84,10.63-12.25,11.89C245.93,302.89,236,303.07,235.3,300.19Z"/><path class="cls-7" d="M255.48,325.23a103.06,103.06,0,0,0-2-24.5c-1.08-4.32-9.37-9.73-19.28-.54s-20.36,60.89-10.45,74.58,29.46,12.84,41.35,1.84c17.17-15.89,34.89-32.85,36.51-33.76s-2.9,47.59.16,54.26c22.52,5.94,118.85-8.83,120.65-11.17s4.32-20.71-11.72-58.54c14.24-1.29,22-10.64,10.57-33.13-9.28-18.22-22.81-28-43.17-33.54-28.16-7.66-52.38-1.44-75.44,16.94S258.54,320.73,255.48,325.23Z"/><path d="M288.23,261.61c2.41-1.1,5.16-.58,7.66-.14a19.69,19.69,0,0,1,7.21,2.4c.55.34,1-.53.51-.87-2.72-1.7-5.87-2.23-9-2.76a11.77,11.77,0,0,0-6.9.51c-.59.27-.08,1.13.5.86Z"/><path d="M291.73,258.11a17.72,17.72,0,0,1,8.74.22,31.89,31.89,0,0,1,7.1,2.83.5.5,0,0,0,.5-.86,34.39,34.39,0,0,0-8.21-3.17,17.14,17.14,0,0,0-8.39,0c-.63.12-.36,1.09.26,1Z"/><path d="M239.07,345.43c2.69-5.09,7.31-8.91,10.92-13.34,1.65-2,3.23-4,5-5.94,2-2.11,4.27-3.92,6.14-6.15.41-.49-.29-1.21-.71-.71-1.87,2.23-4.11,4.08-6.14,6.15s-3.76,4.41-5.58,6.65c-3.5,4.28-7.9,7.9-10.52,12.84-.3.57.57,1.07.87.5Z"/><path d="M398.05,297.92c3.51,5.16,5.54,11.93,7.88,17.74,2,4.94,4.59,10.1,5.75,15.33.14.63,1.1.36,1-.27-1.2-5.39-3.89-10.72-5.95-15.82-2.31-5.75-4.29-12.37-7.78-17.49-.36-.53-1.22,0-.86.51Z"/><path d="M233.23,258.84c1.22,2.43,6.76-.68,5.27-2.7S231.74,257.35,233.23,258.84Z"/><path d="M272.58,294.52c-.72,1.9-2.4,4.13-3.91,4.41,1.92.56,3.43.74,4.1.36S273.2,296.75,272.58,294.52Z"/><path d="M290.52,291.19c8.34-2.39,14.74,3.25,19.48,9.5,5.21,6.85,6.57,15.18,5.38,23.56-.09.63.87.91,1,.27,1.29-9-.26-17.83-6-25.08-5-6.32-11.55-11.64-20-9.22a.5.5,0,0,0,.26,1Z"/><path d="M306.44,287.91c1.52-3.8,5.16-6.67,7.8-9.7a66.24,66.24,0,0,1,9.07-8.08c.51-.41-.21-1.11-.71-.71a78,78,0,0,0-10.16,9.33c-2.5,2.81-5.54,5.33-7,8.89-.24.6.73.86,1,.27Z"/><path d="M300.53,344.24a44.27,44.27,0,0,1,5.28-4.57c2.22-1.76,4.28-3.69,6.47-5.48.49-.41-.22-1.12-.71-.71-2,1.63-3.93,3.32-5.87,5a64.39,64.39,0,0,0-5.88,5c-.43.48.27,1.19.71.71Z"/><path d="M311.87,345.86c0,6.55-.07,13.11,0,19.66s.7,12.88.73,19.34a.5.5,0,0,0,1,0c0-6.46-.59-12.89-.73-19.34s0-13.11,0-19.66a.5.5,0,0,0-1,0Z"/><path d="M250.88,147.62c-4.45-14.28-9.65-28.37-14.65-42.47-4.79-13.47-10.37-26.88-14-40.73a11.33,11.33,0,0,1-.27-1.26c-.19-1.28-2.12-.73-1.93.53a47.47,47.47,0,0,0,2.19,7.57c1.39,4.31,2.87,8.58,4.36,12.85,2.28,6.55,4.65,13.06,7,19.58,5.18,14.37,10.23,28.81,15,43.32l.36,1.14c.39,1.23,2.32.7,1.93-.53Z"/><path class="cls-7" d="M208.28,43.46c3.42-2.16,8.29-3.42,11.53-1.62s9.55,9.55,7.21,17.48-10.27,5.4-13.52,3.42S203.6,47.43,208.28,43.46Z"/><path d="M218.54,45.61c2.6-2.54,5.88-4.57,8.8-6.71,5.57-4.08,11.18-8.1,16.8-12.12,9-6.42,18-12.79,27-19.21,1-.74,0-2.47-1-1.72-9.13,6.52-18.3,13-27.43,19.52-5.58,4-11.15,8-16.69,12.06-2.94,2.15-6.24,4.21-8.87,6.77-.92.9.49,2.31,1.42,1.41Z"/><path class="cls-6" d="M286.11,31.21c-5.69.69-14.59,2.53-14.42,12.43s.91,10.45-2.7,12.79-17.65,15.5-14.77,29.19,25.58,20,46.66,14.59S327,85.62,325.56,77.51s-7.57-21.26-16-24c-7.93-2.52-7-3.06-8.11-10.63S296.56,30,286.11,31.21Z"/><path d="M277,9c2.5,8.92,6.68,17.4,8.64,26.48.28,1.26,2.2.73,1.93-.53-2-9.08-6.15-17.56-8.65-26.48A1,1,0,0,0,277,9Z"/><path d="M208.64,45c3.3-.18,5.9,4.3,7.17,6.82,1,2,3.64,9.76-.1,10.58-.63.14-.36,1.1.27,1,3.91-.86,2.41-7.19,1.64-9.71-1.08-3.55-4.56-9.9-9-9.65-.64,0-.64,1,0,1Z"/><path d="M223.33,152.28c1.87,12.53,19.26,12.22,28.86,11.78,7-.32,14.5-1.17,21.07-3.67,4.82-1.84,6.95-6.29,7.19-11.19,0-.65-1-.64-1,0-.3,6.08-3.51,9.51-9.23,11.09a85.14,85.14,0,0,1-18.91,2.81c-5.77.26-11.27.17-16.86-1.41a18.57,18.57,0,0,1-7.6-3.81c-1.71-1.54-2.23-3.7-2.56-5.86-.09-.64-1.06-.37-1,.26Z"/><path class="cls-4" d="M270.44,4.19c1,5.1,3.6,7.74,7.92,5.76s1.8-6.3-.18-8.64S269.53-.31,270.44,4.19Z"/><path d="M271.59,2.1c2.67-1.17,7.08,4.07,5.16,6.42-.41.49.29,1.21.7.71,2.69-3.29-2.61-9.64-6.37-8-.59.26-.08,1.12.51.87Z"/><path d="M275,36.84c-.9,4.85,4.88,5.89,8.5,6.1,5,.3,12.11-.69,15.11-5.17.36-.54-.51-1-.86-.51-2.54,3.79-8.21,4.51-12.41,4.7-3,.13-10.23-.27-9.38-4.85.12-.63-.85-.9-1-.27Z"/><path d="M271.74,55.71c.12,5.86,6.58,7.24,11.21,7.48,6.65.35,13.41-.63,17.46-6.5.37-.54-.5-1-.86-.51-3.41,4.94-9.17,6.22-14.84,6.09-4.36-.11-11.85-.56-12-6.56,0-.64-1-.64-1,0Z"/></g></g></svg>