<svg width="57" height="57" viewBox="0 0 57 57" fill="none" xmlns="http://www.w3.org/2000/svg">
<path d="M28.24 56.5601C43.704 56.5601 56.24 44.0241 56.24 28.5601C56.24 13.0961 43.704 0.560059 28.24 0.560059C12.776 0.560059 0.23999 13.0961 0.23999 28.5601C0.23999 44.0241 12.776 56.5601 28.24 56.5601Z" fill="white"/>
<path d="M27.0227 28.56H56.24C56.24 26.0328 55.9032 23.5845 55.2755 21.2556H27.0227V28.56Z" fill="#E74A3F"/>
<path d="M27.0227 13.9514H52.1304C50.4164 11.1544 48.2248 8.68222 45.6696 6.64697H27.0227V13.9514Z" fill="#E74A3F"/>
<path d="M28.24 56.5601C34.8297 56.5601 40.8866 54.2825 45.6695 50.4731H10.8104C15.5934 54.2825 21.6503 56.5601 28.24 56.5601Z" fill="#E74A3F"/>
<path d="M4.34967 43.1688H52.1304C53.5064 40.9234 54.5736 38.469 55.2754 35.8644H1.20459C1.90645 38.469 2.97362 40.9234 4.34967 43.1688Z" fill="#E74A3F"/>
<path d="M13.2101 4.93265H15.7617L13.3883 6.65695L14.2949 9.447L11.9216 7.7227L9.54824 9.447L10.3314 7.0367C8.24165 8.77741 6.41005 10.8168 4.90068 13.0892H5.71826L4.20746 14.1868C3.97208 14.5794 3.74633 14.9783 3.52999 15.3831L4.25143 17.6035L2.90546 16.6256C2.57088 17.3345 2.26485 18.0593 1.98977 18.7992L2.7846 21.2457H5.71826L3.34482 22.97L4.25143 25.7601L1.8781 24.0358L0.456443 25.0687C0.314146 26.2126 0.23999 27.3776 0.23999 28.5601H28.24C28.24 13.0962 28.24 11.2731 28.24 0.560059C22.7087 0.560059 17.5524 2.16459 13.2101 4.93265ZM14.2949 25.7601L11.9216 24.0358L9.54824 25.7601L10.4548 22.97L8.08141 21.2457H11.0151L11.9216 18.4557L12.8281 21.2457H15.7617L13.3883 22.97L14.2949 25.7601ZM13.3883 14.8135L14.2949 17.6035L11.9216 15.8792L9.54824 17.6035L10.4548 14.8135L8.08141 13.0892H11.0151L11.9216 10.2991L12.8281 13.0892H15.7617L13.3883 14.8135ZM24.3384 25.7601L21.965 24.0358L19.5917 25.7601L20.4983 22.97L18.1249 21.2457H21.0585L21.965 18.4557L22.8715 21.2457H25.8052L23.4318 22.97L24.3384 25.7601ZM23.4318 14.8135L24.3384 17.6035L21.965 15.8792L19.5917 17.6035L20.4983 14.8135L18.1249 13.0892H21.0585L21.965 10.2991L22.8715 13.0892H25.8052L23.4318 14.8135ZM23.4318 6.65695L24.3384 9.447L21.965 7.7227L19.5917 9.447L20.4983 6.65695L18.1249 4.93265H21.0585L21.965 2.14261L22.8715 4.93265H25.8052L23.4318 6.65695Z" fill="#154CCF"/>
<path d="M55.74 28.5601C55.74 43.7479 43.4278 56.0601 28.24 56.0601C13.0522 56.0601 0.73999 43.7479 0.73999 28.5601C0.73999 13.3722 13.0522 1.06006 28.24 1.06006C43.4278 1.06006 55.74 13.3722 55.74 28.5601Z" stroke="black" stroke-opacity="0"/>
</svg>
