<?xml version="1.0" ?><svg style="enable-background:new 0 0 512 512;" version="1.1" viewBox="0 0 512 512" xml:space="preserve" xmlns="http://www.w3.org/2000/svg" xmlns:xlink="http://www.w3.org/1999/xlink"><style type="text/css">
	.st0{fill:#DD4B39;}
	.st1{opacity:0.2;fill:#FFFFFF;}
	.st2{fill:#E7E7E7;}
</style><g id="outerdark"><path class="st0" d="M256.5,20C126.4,20,21,125.4,21,255.5S126.4,491,256.5,491S492,385.6,492,255.5S386.6,20,256.5,20z M256,460.5   c-112.9,0-204.5-91.6-204.5-204.5S143.1,51.5,256,51.5S460.5,143.1,460.5,256S368.9,460.5,256,460.5z"/></g><g id="outerlight"><path class="st1" d="M423.1,89l-22.4,22.4c37,37,59.8,88.1,59.8,144.6c0,112.9-91.6,204.5-204.5,204.5   c-56.4,0-107.6-22.9-144.6-59.8L90,422.1c92,92,241.1,92,333,0S515,181,423.1,89z"/></g><g id="innerdark"><circle class="st0" cx="256" cy="256" r="180"/></g><g id="Gmail"><polygon class="st2" points="326.8,331.1 152.6,203.8 152.6,198.7 333.9,331.1  "/><polygon class="st2" points="185.3,331.1 359.5,203.8 359.5,198.7 178.2,331.1  "/><path class="st2" d="M359.5,194.5v123c0,1.3-0.2,2.6-0.6,3.8c-1.6,5.6-6.8,9.7-13,9.7h-10V187.8l0.6-0.5l8.7-6.4h0.6   C353.4,180.9,359.5,187,359.5,194.5z"/><path class="st2" d="M345.9,180.9h-0.6l-8.7,6.4l-0.6,0.5l-79.2,57.9l-80.6-58.9l-8-5.8h-2c-7.5,0-13.6,6.1-13.6,13.6v7.4v115.7   c0,1.3,0.2,2.6,0.6,3.8c1.6,5.6,6.8,9.7,13,9.7h10v-112l58.5,42.7l19.2,14l3.5,2.6l22.1-16.2l56.4-41.2l0.6-0.5l22.9-16.7v-9.4   C359.5,187,353.4,180.9,345.9,180.9z"/></g><g id="innerlight"><path class="st1" d="M128.1,382.6c-70.3-70.3-70.3-184.3,0-254.6s184.3-70.3,254.6,0"/></g></svg>