<svg version="1.2" baseProfile="tiny-ps" xmlns="http://www.w3.org/2000/svg" viewBox="0 0 2229 466" width="2229" height="466">
	<title>Layer 1</title>
	<style>
		tspan { white-space:pre }
		.shp0 { fill: #ff3446 } 
		.shp1 { fill: #3ba4db } 
		.shp2 { fill: none;stroke: #00b9f2;stroke-width: 3 } 
		.txt3 { font-size: 49px;fill: #3ba4db;font-family: "Times New Roman" } 
	</style>
	<g id="Layer 1">
		<g id="&lt;Group&gt;">
			<g id="&lt;Group&gt;">
				<g id="&lt;Group&gt;">
					<g id="&lt;Group&gt;">
						<g id="&lt;Group&gt;">
							<g id="&lt;Group&gt;">
								<path id="&lt;Compound Path&gt;" fill-rule="evenodd" class="shp0" d="M493.39 113.25C551.91 95.87 614.53 76.78 675.53 93.2C716.96 103.6 756.87 130.62 772.81 171.58C787.9 210.24 777.01 255.58 750.27 286.51C703.5 339.97 664.08 399.35 621.21 455.96C601.75 424.27 582.74 392.19 563.84 360.11C503.22 360.4 430.01 347.32 401.83 285.94C368.42 215.11 425.33 135.49 493.39 113.25ZM443.75 188.95C418.84 219.21 420.37 267.8 451.1 293.57C490.43 328.8 547.23 316.96 595.44 319.73C603.84 333.29 612.24 347.03 620.64 360.69C645.56 318.78 680.87 283.46 703.41 240.5C726.7 177.78 657.5 125.66 599.83 131.2C545.61 138.26 479.45 140.74 443.75 188.95Z" />
							</g>
							<path id="&lt;Path&gt;" class="shp0" d="M538.63 210.81C552.67 205.37 570.72 213.87 569.66 230.57C562.22 248.14 536.25 255.68 523.74 239.07C518.22 226.37 527.09 214.92 538.63 210.81Z" />
							<path id="&lt;Path&gt;" class="shp0" d="M606.84 206.02C624.62 199.12 647.48 209.89 646.15 231.06C636.71 253.31 603.82 262.87 587.97 241.82C580.96 225.74 592.2 211.22 606.84 206.02Z" />
							<path id="&lt;Path&gt;" class="shp0" d="M489.63 217.2C498.66 213.7 510.27 219.17 509.58 229.92C504.79 241.22 488.09 246.08 480.04 235.39C476.48 227.22 482.19 219.85 489.63 217.2Z" />
						</g>
					</g>
				</g>
				<g id="&lt;Group&gt;">
					<g id="&lt;Group&gt;">
						<g id="&lt;Group&gt;">
							<path id="&lt;Path&gt;" class="shp1" d="M121.09 11.87C195.07 -13.53 272.59 9.29 345.04 28.29C391.06 40.41 429.43 70.38 460.07 105.8C448.9 113.72 437.74 121.74 426.66 129.76C380.75 72.49 304.28 65.71 236.88 56.74C186.67 52.53 130.63 72.1 103.9 116.97C83.1 151.53 90.45 197.35 116.12 227.32C147.15 264.46 173.69 304.75 200.51 344.94C211.49 327.75 222.37 310.57 233.26 293.39C281.94 292.62 331.01 294.91 378.93 284.51C386.19 298.25 393.54 312.1 400.79 325.84C359.36 338.16 316.4 342.55 273.35 343.79C248.82 384.26 225.14 425.22 200.23 465.41C156.5 405.07 112.78 344.55 67.05 285.65C33.45 249.86 -0.24 207.37 1 155.44C-0.92 85.85 57.8 30 121.09 11.87Z" />
							<path id="&lt;Path&gt;" class="shp1" d="M192.97 149.14C215.02 139.5 250.06 154.01 245.47 181.79C232.78 205.75 194.88 202.6 181.52 181.03C170.82 169.95 181.23 153.72 192.97 149.14Z" />
							<path id="&lt;Path&gt;" class="shp1" d="M278.41 158.59C301.41 143.6 342.85 175.49 317.55 197.54C293.11 219.59 244.23 179.59 278.41 158.59Z" />
							<path id="&lt;Path&gt;" class="shp1" d="M343.51 175.87C354.78 156.59 375.21 165.37 391.82 170.81C385.61 184.56 379.31 198.3 373.1 212.05C359.84 203.27 337.59 196.21 343.51 175.87Z" />
						</g>
					</g>
				</g>
			</g>
			<g id="&lt;Group&gt;">
				<g id="&lt;Group&gt;">
					<g id="&lt;Group&gt;">
						<g id="&lt;Group&gt;">
							<path id="&lt;Compound Path&gt;" class="shp1" d="M900.97 305.69C901.28 318 903.33 322.11 906.49 323.21C909.17 324.16 912.17 324.31 914.7 324.31C916.43 324.31 917.38 324.63 917.38 325.58C917.38 326.84 915.96 327.16 913.75 327.16C903.49 327.16 897.18 326.68 894.18 326.68C892.76 326.68 885.34 327.16 877.14 327.16C875.09 327.16 873.67 327 873.67 325.58C873.67 324.63 874.61 324.31 876.19 324.31C878.24 324.31 881.08 324.16 883.29 323.53C887.39 322.26 888.03 317.69 888.18 303.96L889.6 211.01C889.6 207.85 890.08 205.64 891.66 205.64C893.39 205.64 894.81 207.7 897.49 210.54C899.39 212.59 923.37 237.84 946.41 260.72C957.14 271.45 978.45 294.17 981.13 296.7L981.92 296.7L980.34 225.84C980.18 216.22 978.76 213.22 974.98 211.64C972.61 210.69 968.82 210.69 966.61 210.69C964.72 210.69 964.09 210.22 964.09 209.27C964.09 208.01 965.82 207.85 968.19 207.85C976.4 207.85 983.97 208.33 987.29 208.33C989.02 208.33 995.02 207.85 1002.75 207.85C1004.8 207.85 1006.38 208.01 1006.38 209.27C1006.38 210.22 1005.43 210.69 1003.54 210.69C1001.96 210.69 1000.7 210.69 998.81 211.17C994.39 212.43 993.12 215.74 992.97 224.58L991.23 324.16C991.23 327.63 990.6 329.05 989.18 329.05C987.44 329.05 985.55 327.31 983.81 325.58C973.87 316.11 953.67 295.44 937.26 279.18C920.06 262.14 902.54 242.89 899.7 239.89L899.23 239.89L900.97 305.69Z" />
							<path id="&lt;Compound Path&gt;" class="shp1" d="M1043.16 264.51C1043.16 244.15 1043.16 240.36 1043 236.1C1042.68 231.52 1041.42 230.1 1037 228.84C1035.9 228.53 1033.53 228.37 1031.48 228.37C1030.06 228.37 1029.11 227.89 1029.11 226.95C1029.11 226 1030.22 225.69 1032.27 225.69C1039.53 225.69 1048.36 226 1052.31 226C1056.73 226 1087.5 226.16 1090.18 226C1092.71 225.84 1094.92 225.37 1096.02 225.21C1096.81 225.06 1097.6 224.58 1098.23 224.58C1099.02 224.58 1099.18 225.21 1099.18 225.84C1099.18 226.79 1098.39 228.37 1098.07 234.52C1097.92 235.94 1097.6 241.78 1097.28 243.36C1097.13 243.99 1096.81 245.57 1095.71 245.57C1094.76 245.57 1094.6 244.94 1094.6 243.83C1094.6 242.89 1094.44 240.52 1093.66 238.94C1092.55 236.57 1091.45 234.68 1084.5 234.05C1082.14 233.73 1065.57 233.42 1062.72 233.42C1062.09 233.42 1061.78 233.89 1061.78 234.68L1061.78 267.82C1061.78 268.61 1061.94 269.24 1062.72 269.24C1065.88 269.24 1083.87 269.24 1087.03 268.93C1090.34 268.61 1092.23 268.14 1093.66 266.87C1094.76 265.93 1095.23 265.14 1095.86 265.14C1096.5 265.14 1096.97 265.77 1096.97 266.56C1096.97 267.35 1096.65 269.56 1095.86 276.34C1095.55 279.02 1095.23 284.39 1095.23 285.34C1095.23 286.44 1095.08 288.34 1093.81 288.34C1092.87 288.34 1092.55 287.86 1092.55 287.23C1092.39 285.81 1092.39 284.07 1092.08 282.34C1091.29 279.66 1089.55 277.6 1084.34 277.13C1081.82 276.81 1066.04 276.5 1062.57 276.5C1061.94 276.5 1061.78 277.13 1061.78 277.92L1061.78 288.65C1061.78 293.23 1061.62 304.59 1061.78 308.53C1062.09 317.69 1066.35 319.74 1080.56 319.74C1084.19 319.74 1090.03 319.58 1093.66 318C1097.13 316.42 1098.7 313.58 1099.65 308.06C1099.97 306.64 1100.28 306.01 1101.23 306.01C1102.33 306.01 1102.49 307.75 1102.49 309.17C1102.49 312.16 1101.39 321.32 1100.6 324C1099.65 327.47 1098.39 327.47 1093.18 327.47C1082.77 327.47 1074.4 327.31 1067.62 327C1060.83 326.84 1055.62 326.68 1051.52 326.68C1049.94 326.68 1046.94 326.84 1043.63 326.84C1040.32 327 1036.84 327.16 1034 327.16C1032.27 327.16 1031.32 326.68 1031.32 325.73C1031.32 325.1 1031.79 324.31 1033.53 324.31C1035.58 324.31 1037.16 324.16 1038.42 323.84C1041.26 323.21 1042.05 320.69 1042.53 316.74C1043.16 311.06 1043.16 300.49 1043.16 288.18L1043.16 264.51Z" />
							<path id="&lt;Compound Path&gt;" class="shp1" d="M1135.95 264.51C1135.95 244.15 1136.11 240.36 1135.79 236.1C1135.48 231.37 1134.21 230.1 1129.8 228.84C1128.69 228.53 1126.32 228.37 1124.43 228.37C1122.85 228.37 1122.06 227.89 1122.06 226.95C1122.06 226 1123.01 225.69 1125.06 225.69C1132.48 225.69 1141.79 226 1145.89 226C1149.36 226 1158.67 225.69 1163.72 225.69C1165.78 225.69 1166.72 226 1166.72 226.95C1166.72 227.89 1165.93 228.37 1164.51 228.37C1162.93 228.37 1162.15 228.53 1160.41 228.84C1156.78 229.47 1155.68 231.37 1155.36 236.1C1155.04 240.36 1155.04 244.15 1155.04 264.51L1155.04 283.29C1155.04 302.85 1158.83 310.43 1165.62 315.79C1171.77 320.69 1178.4 321.16 1183.13 321.16C1189.13 321.16 1196.23 319.42 1201.76 314.06C1209.49 306.8 1209.8 295.12 1209.8 281.39L1209.8 264.51C1209.8 244.15 1209.65 240.36 1209.49 236.1C1209.17 231.52 1208.07 230.1 1203.65 228.84C1202.54 228.53 1200.18 228.37 1198.6 228.37C1197.02 228.37 1196.23 227.89 1196.23 226.95C1196.23 226 1197.18 225.69 1199.07 225.69C1206.17 225.69 1215.48 226 1215.64 226C1217.22 226 1226.53 225.69 1231.9 225.69C1233.79 225.69 1234.74 226 1234.74 226.95C1234.74 227.89 1233.95 228.37 1232.37 228.37C1230.79 228.37 1230 228.53 1228.27 228.84C1224.48 229.47 1223.53 231.37 1223.22 236.1C1223.06 240.36 1222.9 244.15 1222.9 264.51L1222.9 278.87C1222.9 293.86 1221.32 309.64 1209.65 319.27C1199.86 327.47 1189.29 328.89 1180.29 328.89C1173.03 328.89 1158.67 328.58 1148.57 319.74C1141.47 313.58 1135.95 303.64 1135.95 284.23L1135.95 264.51Z" />
							<path id="&lt;Compound Path&gt;" fill-rule="evenodd" class="shp1" d="M1266.62 264.51C1266.62 244.15 1266.62 240.36 1266.46 236.1C1266.15 231.52 1264.88 230.1 1260.47 228.84C1259.36 228.53 1256.99 228.37 1254.94 228.37C1253.52 228.37 1252.58 227.89 1252.58 226.95C1252.58 226 1253.68 225.69 1255.73 225.69C1262.99 225.69 1271.83 226 1274.67 226C1279.4 226 1292.03 225.69 1296.29 225.69C1305.13 225.69 1315.22 226.48 1322.64 231.37C1326.59 234.05 1332.43 240.84 1332.43 249.83C1332.43 259.77 1326.74 268.61 1313.17 279.5C1325.48 294.65 1335.27 306.8 1343.63 315.16C1351.36 322.89 1356.25 323.53 1358.46 324C1359.88 324.31 1360.67 324.31 1361.78 324.31C1362.88 324.31 1363.51 325.1 1363.51 325.73C1363.51 326.84 1362.57 327.16 1360.83 327.16L1347.57 327.16C1339.84 327.16 1336.06 326.37 1332.43 324.47C1326.43 321.47 1321.22 315.16 1313.49 304.75C1307.97 297.49 1302.13 288.49 1300.39 286.44C1299.6 285.65 1298.81 285.49 1297.87 285.49L1285.4 285.18C1284.77 285.18 1284.29 285.49 1284.29 286.28L1284.29 288.18C1284.29 300.64 1284.45 311.06 1285.08 316.74C1285.56 320.69 1286.19 323.21 1290.45 323.84C1292.5 324.16 1295.5 324.31 1297.23 324.31C1298.34 324.31 1298.97 325.1 1298.97 325.73C1298.97 326.68 1297.87 327.16 1296.13 327.16C1288.08 327.16 1276.56 326.68 1274.51 326.68C1271.83 326.68 1262.99 327.16 1257.47 327.16C1255.73 327.16 1254.79 326.68 1254.79 325.73C1254.79 325.1 1255.26 324.31 1256.99 324.31C1259.05 324.31 1260.62 324.16 1261.89 323.84C1264.73 323.21 1265.52 320.69 1265.99 316.74C1266.62 311.06 1266.62 300.49 1266.62 288.18L1266.62 264.51ZM1284.29 274.92C1284.29 276.34 1284.61 276.81 1285.56 277.29C1288.56 278.24 1292.66 278.55 1296.13 278.55C1301.65 278.55 1303.55 278.08 1305.91 276.34C1310.18 273.34 1314.91 267.5 1314.91 256.46C1314.91 237.52 1301.97 232.63 1293.76 232.63C1290.29 232.63 1286.98 232.79 1285.56 233.1C1284.61 233.42 1284.29 233.89 1284.29 235L1284.29 274.92Z" />
							<path id="&lt;Compound Path&gt;" fill-rule="evenodd" class="shp1" d="M1366.83 276.34C1366.83 253.46 1382.93 223.79 1425.06 223.79C1460.1 223.79 1481.87 243.2 1481.87 273.97C1481.87 304.75 1459.47 328.89 1423.64 328.89C1383.24 328.89 1366.83 300.17 1366.83 276.34ZM1461.2 278.87C1461.2 249.2 1443.37 230.89 1420.96 230.89C1405.5 230.89 1387.35 239.1 1387.35 272.24C1387.35 299.85 1403.13 321.63 1429.32 321.63C1439.11 321.63 1461.2 317.06 1461.2 278.87Z" />
						</g>
					</g>
					<g id="&lt;Group&gt;">
						<g id="&lt;Group&gt;">
							<path id="&lt;Compound Path&gt;" class="shp1" d="M1543.27 281.39C1543.27 301.59 1543.27 312.48 1546.58 315.32C1549.26 317.69 1553.37 318.79 1565.68 318.79C1574.04 318.79 1580.19 318.63 1584.14 314.37C1586.03 312.32 1587.93 307.9 1588.24 304.9C1588.4 303.48 1588.71 302.54 1589.98 302.54C1591.08 302.54 1591.24 303.33 1591.24 305.22C1591.24 306.96 1590.13 318.79 1588.87 323.37C1587.93 326.84 1587.14 327.63 1578.93 327.63C1567.57 327.63 1559.36 327.31 1552.26 327.16C1545.16 326.84 1539.48 326.68 1533.01 326.68C1531.27 326.68 1527.8 326.68 1524.01 326.84C1520.38 326.84 1516.28 327.16 1513.13 327.16C1511.07 327.16 1509.97 326.68 1509.97 325.58C1509.97 324.79 1510.6 324.31 1512.49 324.31C1514.86 324.31 1516.76 324 1518.18 323.68C1521.33 323.05 1522.12 319.58 1522.75 315C1523.54 308.38 1523.54 295.91 1523.54 281.39L1523.54 253.62C1523.54 229.63 1523.54 225.21 1523.22 220.16C1522.91 214.8 1521.65 212.27 1516.44 211.17C1515.18 210.85 1513.28 210.69 1511.23 210.69C1509.5 210.69 1508.55 210.38 1508.55 209.27C1508.55 208.17 1509.65 207.85 1512.02 207.85C1519.44 207.85 1529.38 208.33 1533.64 208.33C1537.43 208.33 1548.95 207.85 1555.1 207.85C1557.31 207.85 1558.42 208.17 1558.42 209.27C1558.42 210.38 1557.47 210.69 1555.58 210.69C1553.84 210.69 1551.31 210.85 1549.42 211.17C1545.16 211.96 1543.9 214.64 1543.58 220.16C1543.27 225.21 1543.27 229.63 1543.27 253.62L1543.27 281.39Z" />
							<path id="&lt;Compound Path&gt;" class="shp1" d="M1623.75 264.51C1623.75 244.15 1623.75 240.36 1623.59 236.1C1623.28 231.52 1621.86 229.95 1618.86 229C1617.28 228.53 1615.55 228.37 1613.81 228.37C1612.39 228.37 1611.6 228.05 1611.6 226.79C1611.6 226 1612.71 225.69 1614.91 225.69C1620.12 225.69 1629.59 226 1633.54 226C1637.01 226 1646 225.69 1651.37 225.69C1653.1 225.69 1654.21 226 1654.21 226.79C1654.21 228.05 1653.42 228.37 1652 228.37C1650.58 228.37 1649.47 228.53 1647.9 228.84C1644.11 229.47 1643 231.37 1642.69 236.1C1642.37 240.36 1642.37 244.15 1642.37 264.51L1642.37 288.18C1642.37 301.12 1642.37 311.85 1643 317.53C1643.48 321.16 1644.42 323.21 1648.53 323.84C1650.42 324.16 1653.58 324.31 1655.63 324.31C1657.21 324.31 1657.84 325.1 1657.84 325.73C1657.84 326.68 1656.73 327.16 1655.16 327.16C1646 327.16 1636.53 326.68 1632.75 326.68C1629.59 326.68 1620.12 327.16 1614.6 327.16C1612.86 327.16 1611.92 326.68 1611.92 325.73C1611.92 325.1 1612.39 324.31 1614.13 324.31C1616.18 324.31 1617.76 324.16 1619.02 323.84C1621.86 323.21 1622.65 321.32 1623.12 317.37C1623.75 311.85 1623.75 301.12 1623.75 288.18L1623.75 264.51Z" />
							<path id="&lt;Compound Path&gt;" class="shp1" d="M1704.55 308.85C1704.87 319.27 1706.6 322.42 1709.29 323.37C1711.65 324.16 1714.34 324.31 1716.54 324.31C1718.12 324.31 1718.91 324.95 1718.91 325.73C1718.91 326.84 1717.65 327.16 1715.76 327.16C1706.76 327.16 1700.29 326.68 1697.77 326.68C1696.5 326.68 1689.88 327.16 1682.77 327.16C1680.88 327.16 1679.62 327 1679.62 325.73C1679.62 324.95 1680.56 324.31 1681.83 324.31C1683.72 324.31 1686.25 324.16 1688.14 323.68C1691.77 322.74 1692.24 319.11 1692.4 307.43L1693.66 227.89C1693.66 225.21 1694.61 223.32 1696.03 223.32C1697.77 223.32 1699.66 225.37 1702.03 227.74C1703.76 229.47 1724.59 250.78 1744.79 270.5C1754.26 279.81 1772.72 298.75 1774.77 300.64L1775.41 300.64L1773.99 240.99C1773.83 232.79 1772.57 230.42 1769.25 229.16C1767.2 228.37 1763.89 228.37 1761.99 228.37C1760.26 228.37 1759.78 227.74 1759.78 226.95C1759.78 225.84 1761.2 225.69 1763.26 225.69C1770.51 225.69 1777.93 226 1780.93 226C1782.51 226 1787.72 225.69 1794.5 225.69C1796.39 225.69 1797.66 225.84 1797.66 226.95C1797.66 227.74 1796.87 228.37 1795.29 228.37C1793.87 228.37 1792.76 228.37 1791.03 228.84C1787.24 229.95 1786.14 232.31 1785.98 239.89L1784.4 324.47C1784.4 327.47 1783.3 328.73 1782.19 328.73C1779.82 328.73 1777.93 327.31 1776.51 325.89C1767.83 317.85 1750.47 301.27 1735.95 287.23C1720.81 272.71 1706.13 256.46 1703.45 254.09L1702.97 254.09L1704.55 308.85Z" />
							<path id="&lt;Compound Path&gt;" class="shp1" d="M1919.65 318.16C1919.65 321.79 1919.65 321.95 1917.91 322.89C1908.6 327.47 1894.87 328.89 1883.98 328.89C1849.9 328.89 1819.76 313.43 1819.76 276.34C1819.76 254.88 1831.28 239.89 1844.06 232.47C1857.31 224.74 1869.78 223.79 1881.46 223.79C1891.08 223.79 1903.24 225.37 1906.08 226C1908.92 226.48 1913.81 227.26 1917.12 227.42C1918.7 227.58 1919.02 228.05 1919.02 229C1919.02 230.58 1918.07 234.21 1918.07 251.09C1918.07 253.14 1917.28 254.09 1916.18 254.09C1915.23 254.09 1914.91 253.46 1914.76 252.35C1914.44 249.36 1913.65 245.1 1910.02 241.31C1905.92 237.05 1895.5 231.05 1879.88 231.05C1872.31 231.05 1862.68 231.21 1853.05 238.94C1845.32 245.25 1840.27 255.2 1840.27 271.61C1840.27 300.49 1858.89 321.47 1888.56 321.47C1892.19 321.47 1895.03 321.47 1898.34 320.05C1900.39 319.11 1901.03 317.69 1901.03 315.32L1901.03 303.01C1901.03 296.38 1901.03 291.33 1900.87 287.23C1900.71 282.65 1899.29 281.23 1894.87 279.97C1893.77 279.66 1891.4 279.5 1889.51 279.5C1888.24 279.5 1887.3 278.87 1887.3 278.08C1887.3 276.97 1888.4 276.81 1890.3 276.81C1897.55 276.81 1907.5 277.13 1911.6 277.13C1916.02 277.13 1923.28 276.81 1927.85 276.81C1929.75 276.81 1930.69 276.97 1930.69 278.08C1930.69 278.87 1929.9 279.5 1928.96 279.5C1927.85 279.5 1926.75 279.66 1925.17 279.97C1921.38 280.6 1919.96 282.5 1919.8 287.23C1919.65 291.33 1919.65 296.7 1919.65 303.33L1919.65 318.16Z" />
							<path id="&lt;Compound Path&gt;" class="shp1" d="M1960.37 264.51C1960.37 244.15 1960.52 240.36 1960.21 236.1C1959.89 231.37 1958.63 230.1 1954.21 228.84C1953.11 228.53 1950.74 228.37 1948.85 228.37C1947.27 228.37 1946.48 227.89 1946.48 226.95C1946.48 226 1947.43 225.69 1949.48 225.69C1956.89 225.69 1966.2 226 1970.31 226C1973.78 226 1983.09 225.69 1988.14 225.69C1990.19 225.69 1991.14 226 1991.14 226.95C1991.14 227.89 1990.35 228.37 1988.93 228.37C1987.35 228.37 1986.56 228.53 1984.83 228.84C1981.2 229.47 1980.09 231.37 1979.78 236.1C1979.46 240.36 1979.46 244.15 1979.46 264.51L1979.46 283.29C1979.46 302.85 1983.25 310.43 1990.03 315.79C1996.19 320.69 2002.82 321.16 2007.55 321.16C2013.55 321.16 2020.65 319.42 2026.17 314.06C2033.9 306.8 2034.22 295.12 2034.22 281.39L2034.22 264.51C2034.22 244.15 2034.06 240.36 2033.9 236.1C2033.59 231.52 2032.48 230.1 2028.06 228.84C2026.96 228.53 2024.59 228.37 2023.01 228.37C2021.44 228.37 2020.65 227.89 2020.65 226.95C2020.65 226 2021.59 225.69 2023.49 225.69C2030.59 225.69 2039.9 226 2040.06 226C2041.64 226 2050.95 225.69 2056.31 225.69C2058.21 225.69 2059.15 226 2059.15 226.95C2059.15 227.89 2058.36 228.37 2056.79 228.37C2055.21 228.37 2054.42 228.53 2052.68 228.84C2048.89 229.47 2047.95 231.37 2047.63 236.1C2047.47 240.36 2047.32 244.15 2047.32 264.51L2047.32 278.87C2047.32 293.86 2045.74 309.64 2034.06 319.27C2024.28 327.47 2013.7 328.89 2004.71 328.89C1997.45 328.89 1983.09 328.58 1972.99 319.74C1965.89 313.58 1960.37 303.64 1960.37 284.23L1960.37 264.51Z" />
							<path id="&lt;Compound Path&gt;" fill-rule="evenodd" class="shp1" d="M2098.14 293.23C2097.35 293.23 2097.19 293.39 2096.88 294.17L2089.46 312.32C2088.04 315.64 2087.41 318.95 2087.41 320.53C2087.41 322.89 2088.67 324.31 2092.93 324.31L2094.98 324.31C2096.72 324.31 2097.03 324.95 2097.03 325.73C2097.03 326.84 2096.24 327.16 2094.82 327.16C2090.25 327.16 2083.78 326.68 2079.36 326.68C2077.94 326.68 2070.52 327.16 2063.26 327.16C2061.53 327.16 2060.74 326.84 2060.74 325.73C2060.74 324.95 2061.21 324.31 2062.32 324.31C2063.58 324.31 2065.16 324.16 2066.42 324.16C2072.73 323.21 2075.1 319.11 2077.94 312.32L2114.23 228.53C2115.81 224.74 2116.92 223.16 2118.34 223.16C2120.39 223.16 2121.02 224.42 2122.44 227.42C2125.75 234.84 2148.95 289.12 2157.79 309.48C2163.16 321.63 2167.1 323.37 2169.62 323.84C2171.68 324.16 2173.26 324.31 2174.83 324.31C2176.1 324.31 2176.73 324.79 2176.73 325.73C2176.73 326.84 2175.94 327.16 2170.73 327.16C2165.84 327.16 2155.74 327.16 2144.06 326.84C2141.53 326.68 2139.96 326.68 2139.96 325.73C2139.96 324.95 2140.27 324.47 2141.69 324.31C2142.64 324.16 2143.59 322.89 2142.96 321.32L2132.22 294.17C2131.91 293.39 2131.43 293.23 2130.8 293.23L2098.14 293.23ZM2127.81 285.81C2128.44 285.81 2128.6 285.49 2128.44 285.02L2115.34 251.41C2115.18 250.94 2115.02 250.15 2114.71 250.15C2114.23 250.15 2114.08 250.94 2113.92 251.41L2100.51 284.86C2100.19 285.49 2100.51 285.81 2100.98 285.81L2127.81 285.81Z" />
						</g>
					</g>
				</g>
				<path id="&lt;Path&gt;" class="shp2" d="M2227.05 184.95C2227.05 211.47 2205.56 232.96 2179.04 232.96C2152.53 232.96 2131.04 211.47 2131.04 184.95C2131.04 158.44 2152.53 136.95 2179.04 136.95C2205.56 136.95 2227.05 158.44 2227.05 184.95Z" />
				<text id="  R" style="transform: matrix(1,0,0,1,2140.688,203.033)" >
					<tspan x="0" y="0" class="txt3"> </tspan><tspan  y="0" class="txt3"> </tspan><tspan  y="0" class="txt3">R
</tspan>
				</text>
			</g>
		</g>
	</g>
</svg>