<?xml version="1.0" ?><svg height="512" preserveAspectRatio="xMidYMid" viewBox="0 0 512 512" width="512" xmlns="http://www.w3.org/2000/svg" xmlns:xlink="http://www.w3.org/1999/xlink"><defs><style>
      .cls-1 {
        fill: #fff;
      }

      .cls-2 {
        fill: #cc2127;
      }

      .cls-2, .cls-3 {
        fill-rule: evenodd;
      }

      .cls-3 {
        fill: #000;
        opacity: 0.1;
      }
    </style></defs><circle class="cls-1" cx="256" cy="256" r="256"/><path class="cls-2" d="M256.000,512.000 C114.615,512.000 0.000,397.385 0.000,256.000 C0.000,114.615 114.615,0.000 256.000,0.000 C397.385,0.000 512.000,114.615 512.000,256.000 C512.000,397.385 397.385,512.000 256.000,512.000 ZM353.882,204.277 C349.262,121.860 264.774,102.793 231.224,101.996 C182.365,101.251 99.953,130.627 91.042,223.675 C91.042,223.675 88.630,300.323 136.601,304.794 C146.151,304.496 150.718,280.775 148.867,274.815 C147.017,268.855 137.651,266.538 133.097,250.127 C126.452,226.181 127.531,191.354 161.133,160.190 C194.996,128.590 265.877,118.444 296.057,170.771 C311.232,204.984 311.960,220.039 303.067,253.653 C290.700,300.394 266.274,314.460 248.747,315.374 C216.059,317.080 212.203,295.761 215.453,285.395 C238.146,213.024 229.471,195.459 229.471,195.459 C229.471,195.459 213.502,163.620 183.912,186.642 C158.550,207.913 168.053,250.256 171.647,258.944 C174.632,266.162 148.152,367.823 147.115,373.568 C136.241,401.902 144.895,440.462 148.867,442.343 C152.840,444.224 158.488,444.909 180.408,403.547 C189.655,385.968 203.187,331.245 203.187,331.245 C203.187,331.245 208.824,343.296 231.223,348.880 C244.039,352.341 248.224,353.224 254.003,352.407 C273.724,349.494 357.175,343.631 353.882,204.277 Z"/><path class="cls-3" d="M436.999,75.012 C536.959,174.972 536.959,337.039 436.999,436.999 C337.039,536.959 174.972,536.959 75.012,436.999 "/></svg>